<?xml version="1.0" encoding="UTF-8"?>
<svg width="72px" height="79px" viewBox="0 0 72 79" version="1.1" xmlns="http://www.w3.org/2000/svg" xmlns:xlink="http://www.w3.org/1999/xlink">
    <title>B094340C-E52B-40F4-86D8-FFA008496CF5</title>
    <defs>
        <polygon id="path-1" points="0 0 72 0 72 79 0 79"></polygon>
    </defs>
    <g id="Pattern-Library" stroke="none" stroke-width="1" fill="none" fill-rule="evenodd">
        <g transform="translate(-356.000000, -6263.000000)" id="Group-18">
            <g transform="translate(356.000000, 6263.000000)">
                <path d="M36.0137214,34.3334375 C34.6227608,34.3334375 33.2884034,34.8775644 32.3054776,35.8465176 C31.3220595,36.8154709 30.7693176,38.1302018 30.7693176,39.5007032 L30.7698098,39.5007032 C30.7712864,40.8702347 31.3250127,42.1835107 32.3074464,43.1524639 C33.2908644,44.1204473 34.623253,44.6660291 36.0137214,44.6674839 C37.404682,44.6674839 38.7390395,44.123357 39.7219653,43.1544038 C40.7053833,42.1854505 41.2581253,40.8712046 41.2581253,39.5007032 C41.2581253,38.1302018 40.7053833,36.8154709 39.7219653,35.8465176 C38.7385473,34.8775644 37.404682,34.3334375 36.0137214,34.3334375" id="Fill-1" fill="#AB1D35"></path>
                <path d="M51.8127895,60.460646 C51.8127895,60.460646 51.8127895,60.460161 51.8127895,60.460161 C51.8127895,60.460161 51.8122973,60.460161 51.8122973,60.460161 L51.8127895,60.460646 Z" id="Fill-3" fill="#020303"></path>
                <g id="Group-7">
                    <mask id="mask-2" fill="white">
                        <use xlink:href="#path-1"></use>
                    </mask>
                    <g id="Clip-6"></g>
                    <path d="M67.1936834,57.2366214 L67.1936834,57.2361364 C65.2544107,60.5411496 59.5768698,61.685174 51.812888,60.460161 C51.812888,60.460161 51.812888,60.460646 51.812888,60.460646 L51.8123958,60.460161 C51.8123958,60.460161 51.8123958,60.460161 51.812888,60.460161 C52.8091032,56.9441895 53.5232871,53.3569287 53.9480568,49.7308709 C56.9367025,47.5349648 59.7432338,45.109187 62.3420562,42.4758455 C67.3413438,48.5141023 69.0916113,54.0116268 67.1936834,57.2366214 M50.455397,39.5015761 C50.455397,42.2988346 50.3244715,44.9670932 50.0793553,47.5063521 C47.9683043,48.9811203 45.6859673,50.4326103 43.2313599,51.8273598 L43.2308677,51.8273598 C37.2811395,55.2875607 30.8736642,57.922357 24.1925251,59.6546398 C23.5428195,57.4073278 23.0240394,55.1246136 22.6381537,52.8186213 C23.9636515,53.667789 25.3275411,54.4956185 26.7293301,55.3011397 L26.7293301,55.3016246 C27.19889,55.5727181 27.7595072,55.6488571 28.2861625,55.511613 C28.8128178,55.3743689 29.2626897,55.0353807 29.534877,54.5707875 C29.8070642,54.1057093 29.87991,53.5528531 29.7371717,53.0349142 C29.5944333,52.5164902 29.2484159,52.0761451 28.7744261,51.8108711 L28.7896843,51.8268749 C26.3350769,50.4326103 24.0522477,48.9811203 21.941689,47.5063521 C21.704448,44.9666082 21.5656472,42.2988346 21.5656472,39.5010912 C21.4952625,32.6961102 22.3792558,25.9148923 24.1915407,19.3480275 C26.4940579,19.9188273 28.7611367,20.6191118 30.9824407,21.4440314 C29.5752375,22.1535302 28.1596668,22.8945515 26.7445883,23.7010427 C26.2705986,23.9663167 25.9240889,24.4071467 25.7813506,24.9250857 C25.6391044,25.4430247 25.7119502,25.9958809 25.9841375,26.4609591 C26.2563247,26.9260372 26.7061966,27.2645404 27.2328519,27.4017845 C27.7595072,27.5390287 28.3201244,27.4633747 28.7896843,27.1917962 C31.2442918,25.7975316 33.6988992,24.5720337 36.0142136,23.507543 C38.3620134,24.5715487 40.7762603,25.7888023 43.2387429,27.1917962 C49.2583637,30.5307567 54.7818456,34.6728136 59.6516844,39.5015761 C57.9988727,41.1780883 56.250574,42.760518 54.4151557,44.2415907 C54.4968611,42.6858339 54.5460812,41.1058291 54.5460812,39.5015761 C54.5460812,38.3885893 53.6300948,37.4860758 52.500493,37.4860758 C51.3713835,37.4860758 50.455397,38.3885893 50.455397,39.5015761 M47.8442696,59.6541549 C46.8136003,59.4043996 45.7661961,59.1299114 44.7109167,58.8078969 C44.1921367,58.6502844 43.6315195,58.7026602 43.1521155,58.9529004 C42.6727116,59.2031406 42.3138969,59.6308767 42.1539315,60.1415413 C41.8216957,61.2060319 42.4280876,62.3335676 43.507977,62.6604317 C44.5307711,62.9669275 45.54569,63.2409308 46.5517493,63.4669229 C43.7535854,70.7379519 39.8105615,74.9697267 36.0142136,74.9702117 L36.0142136,74.9702117 L36.0137214,74.9702117 C36.0137214,74.9702117 36.0142136,74.9702117 36.0142136,74.9702117 C32.2178657,74.9702117 28.2743497,70.7384369 25.4683106,63.4591635 C25.4683106,63.4591635 25.4683106,63.4591635 25.4683106,63.4591635 L25.4683106,63.4586785 C25.4683106,63.4586785 25.4683106,63.4586785 25.4683106,63.4591635 C32.4201604,61.6497718 39.087518,58.9097388 45.283839,55.3171434 C46.6959642,54.5106523 48.060346,53.6833078 49.3745232,52.8341401 C48.9955282,55.1343129 48.4846234,57.4107226 47.8442696,59.6541549 M36.0142136,4.03148567 C39.8843917,4.03148567 43.7299597,8.30399725 46.5113888,15.5512632 C42.923242,16.4595963 39.4133552,17.6462973 36.0142136,19.0982722 C32.5998139,17.6404777 29.0736844,16.4518369 25.4683106,15.5425339 C28.2743497,8.26374544 32.2178657,4.03148567 36.0142136,4.03148567 M48.5968453,22.4435373 C48.7021763,22.9799048 49.0245681,23.4503175 49.4896983,23.7485689 C49.9543362,24.0458504 50.5223364,24.1447825 51.0627733,24.0225722 C51.6032102,23.9003619 52.0703092,23.5667083 52.3557859,23.0992053 C52.6427392,22.6307324 52.7234602,22.068177 52.5807218,21.5405388 C52.3434809,20.5085405 52.0737546,19.5085497 51.7626834,18.5255326 C59.6009876,17.2762716 65.286896,18.5415363 67.1936834,21.7665309 L67.1936834,21.7665309 C69.0916113,24.9905555 67.3408516,30.48905 62.3504236,36.5180924 C62.3504236,36.5185774 62.3504236,36.5185774 62.3504236,36.5185774 L62.3499314,36.5185774 C62.3499314,36.5185774 62.3504236,36.5185774 62.3504236,36.5180924 C57.2832122,31.4924355 51.5407007,27.1738526 45.2833468,23.6850389 C43.8677761,22.8785478 42.4526976,22.1287972 41.0450022,21.4280277 C43.2480948,20.6103825 45.4959777,19.9159175 47.7783147,19.3480275 C48.072651,20.3557776 48.3512369,21.3795316 48.5968453,22.4435373 M4.84261906,57.2356514 C2.94419901,54.0106569 4.7358114,48.5131323 9.71885641,42.5151274 L9.74445087,42.5156124 L9.74395867,42.5156124 C12.335398,45.1247057 15.1315931,47.5291453 18.1049806,49.7056529 C18.5263048,53.339955 19.2375355,56.9359452 20.2327664,60.4596761 C12.4358071,61.7011777 6.74153131,60.4596761 4.84261906,57.2356514 M4.83572824,21.7670159 L4.83523604,21.7665309 C6.73316389,18.5420213 12.4279318,17.2762716 20.2253834,18.5420213 C20.2253834,18.5420213 20.2253834,18.5420213 20.2253834,18.5415363 L20.2253834,18.5420213 C20.2253834,18.5420213 20.2253834,18.5420213 20.2253834,18.5420213 C18.3422215,25.3722203 17.4168833,32.4240467 17.4764396,39.5010912 C17.4764396,41.1131035 17.5256597,42.7251158 17.6068729,44.2411057 C15.7857285,42.7590631 14.0512114,41.1766334 12.4116892,39.5010912 C13.1480222,38.7430962 13.9089653,37.9933456 14.7191285,37.2518393 L14.7186363,37.2518393 C15.4899155,36.4841451 15.5096036,35.2537976 14.7634266,34.4628252 C14.0172495,33.6713679 12.7709961,33.6005635 11.9372072,34.301333 C11.1186766,35.0185912 10.4069537,35.7518531 9.67898811,36.4856 C4.68806788,30.4880801 2.93780039,24.9905555 4.83572824,21.7670159 M70.7296569,19.75782 C67.7597148,14.6788173 60.1586516,13.0832937 50.5528529,14.7117947 C47.1005536,5.33603234 41.8482745,0 36.0142136,0 C30.1806449,0 24.8550279,5.69102422 21.4839418,14.7117947 C11.8702679,13.0992974 4.30218213,14.7117947 1.29138736,19.7500606 C-1.71989962,24.7883265 0.718465152,32.1078518 6.94481041,39.5001212 C0.44824669,47.1261422 -1.62145938,54.2676865 1.29138736,59.2501819 L1.29237176,59.2506668 C3.52598083,63.0556754 8.35299806,64.8931949 14.693534,64.8931949 C16.97341,64.8801009 19.248364,64.6744772 21.4928015,64.2811734 C24.8555201,73.3097032 30.0669465,79.0002425 36.0147058,79.0002425 C41.9624652,79.0002425 47.1665086,73.3169776 50.5371024,64.3039666 L50.5371024,64.3044515 C52.8071344,64.7166689 55.1091594,64.9353865 57.4180753,64.9576948 C63.848684,64.9576948 68.5369005,63.0066943 70.7296569,59.2579412 C73.7074742,54.1789385 71.3025791,46.8923907 65.059499,39.5078806 C71.3020869,32.1233705 73.699599,24.8363377 70.7296569,19.75782" id="Fill-5" fill="#020303" mask="url(#mask-2)"></path>
                </g>
                <path d="M62.3506205,36.5184804 C62.3506205,36.5184804 62.3506205,36.5184804 62.3501283,36.5179955 C62.3501283,36.5184804 62.3501283,36.5184804 62.3501283,36.5184804 L62.3506205,36.5184804 Z" id="Fill-8" fill="#020303"></path>
                <path d="M36.0142629,74.9700662 L36.0142629,74.9700662 C36.0142629,74.9700662 36.0137707,74.9700662 36.0137707,74.9700662 L36.0142629,74.9700662 Z" id="Fill-10" fill="#020303"></path>
                <path d="M20.2253834,18.5416333 C20.2253834,18.5416333 20.2253834,18.5421183 20.2253834,18.5421183 C20.2253834,18.5421183 20.2253834,18.5421183 20.2253834,18.5421183 L20.2253834,18.5416333 Z" id="Fill-12" fill="#020303"></path>
                <path d="M25.4682122,63.459018 C25.4682122,63.459018 25.4682122,63.459018 25.4682122,63.459018 C25.4682122,63.459018 25.4682122,63.458533 25.4682122,63.458533 L25.4682122,63.459018 Z" id="Fill-14" fill="#020303"></path>
                <path d="M39.7221622,43.1545008 C38.7387442,44.123454 37.4043867,44.6675809 36.0139183,44.6675809 C34.6234499,44.666126 33.2910612,44.1205443 32.3076432,43.1525609 C31.3247174,42.1836077 30.7709911,40.8703317 30.7695145,39.5008002 L30.7695145,39.5008002 C30.7695145,38.1302987 31.3217642,36.8155679 32.3051822,35.8466146 C33.2886002,34.8776614 34.6229577,34.3335345 36.0139183,34.3335345 C37.4043867,34.3335345 38.7387442,34.8776614 39.7221622,35.8466146 C40.7055802,36.8155679 41.25783,38.1302987 41.25783,39.5008002 C41.25783,40.8708167 40.7055802,42.1855475 39.7221622,43.1545008 M36.0134261,30.3030187 C33.5376541,30.3030187 31.1632754,31.271487 29.4130079,32.9969803 C27.6617561,34.7215037 26.678338,37.0609584 26.678338,39.5008002 C26.678338,41.940157 27.6617561,44.2796117 29.4130079,46.0041351 C31.1632754,47.7296284 33.5376541,48.6980967 36.0134261,48.6980967 C38.488706,48.6966418 40.861608,47.7267186 42.6118755,46.0021952 C44.362143,44.2776718 45.3470376,41.939187 45.3485142,39.5008002 L45.3485142,39.5008002 C45.3485142,37.0614434 44.3650962,34.7215037 42.6143365,32.9969803 C40.864069,31.271972 38.4891982,30.3030187 36.0134261,30.3030187" id="Fill-16" fill="#020303"></path>
            </g>
        </g>
    </g>
</svg>