<?xml version="1.0" encoding="UTF-8"?>
<svg width="87px" height="76px" viewBox="0 0 87 76" version="1.1" xmlns="http://www.w3.org/2000/svg" xmlns:xlink="http://www.w3.org/1999/xlink">
    <title>1061600E-FFDB-4F4A-A8DD-F74BC3FB5A8C</title>
    <defs>
        <polygon id="path-1" points="0 0 87 0 87 76 0 76"></polygon>
    </defs>
    <g id="Pattern-Library" stroke="none" stroke-width="1" fill="none" fill-rule="evenodd">
        <g transform="translate(-741.000000, -6268.000000)" id="Group-20">
            <g transform="translate(741.000000, 6268.000000)">
                <g id="Group-3">
                    <mask id="mask-2" fill="white">
                        <use xlink:href="#path-1"></use>
                    </mask>
                    <g id="Clip-2"></g>
                    <path d="M82.5615092,63.5393457 L61.6105508,63.5393457 C56.5842545,63.5068054 51.7900049,65.6402593 48.463082,69.3892718 L48.3917184,69.4690185 L48.3116071,69.548307 L48.3116071,69.5487653 C48.0376631,69.8210041 47.7406987,70.0689522 47.424397,70.2912347 L47.15828,70.4768521 L47.1573592,70.4768521 C46.902292,70.6478034 46.6352542,70.8013388 46.3585478,70.9360832 L46.3056006,70.9360832 L46.1720817,70.9974974 L45.817566,71.1478245 C45.5993316,71.2284879 45.3769536,71.2963184 45.1508922,71.3513161 L44.7696727,71.4393125 C44.3520808,71.5277672 43.926662,71.5749736 43.5003223,71.58139 L43.1094342,71.58139 C42.8115489,71.5635158 42.5150448,71.524559 42.222224,71.4658948 C42.035758,71.4658948 41.8847435,71.3866064 41.7074856,71.3334419 L41.7070252,71.3334419 C41.5205592,71.2880687 41.3363951,71.2316961 41.1563748,71.1656988 L40.7654867,70.9979557 L40.5969766,70.9186673 C40.3271764,70.788506 40.0665843,70.6404704 39.8161212,70.4768521 L39.5053445,70.2646525 C39.2203507,70.0501613 38.9537732,69.8132127 38.7065331,69.5574732 L38.538023,69.3805638 L38.5375626,69.3805638 C35.1959066,65.6462174 30.414088,63.5054304 25.3900938,63.4948892 L4.43867497,63.4948892 L4.43867497,13.2553716 L9.97878886,13.2553716 L9.97878886,55.7626655 L9.97832845,55.7626655 C9.97832845,56.3488497 10.2122167,56.9112016 10.6284274,57.3250596 C11.0446381,57.7393758 11.6091008,57.9717413 12.1975048,57.9717413 L26.0111869,57.9717413 C32.0577518,57.978616 37.8151792,60.5506769 41.8400837,65.0417006 C42.2613589,65.5114729 42.8635752,65.7795869 43.4961786,65.7795869 C44.1283216,65.7795869 44.7309983,65.5114729 45.1513527,65.0417006 C49.1762571,60.5506769 54.9336846,57.978616 60.9807099,57.9717413 L74.8031398,57.9717413 C75.3910834,57.9717413 75.9560065,57.7393758 76.3722172,57.3250596 C76.7884278,56.9112016 77.0223161,56.3488497 77.0223161,55.7626655 L77.0223161,13.2553716 L82.5615092,13.2553716 L82.5615092,63.5393457 Z M14.4171415,4.41815167 L26.0111869,4.41815167 C31.770456,4.42273481 37.2811036,6.75418061 41.2806855,10.8785527 L41.2806855,58.538218 C36.8616701,55.2814352 31.5094035,53.5219659 26.0111869,53.5182994 L14.4171415,53.5182994 L14.4171415,4.41815167 Z M45.719959,10.8959686 C49.7167785,6.76518016 55.228347,4.42731796 60.9894577,4.41815167 L60.9894577,4.41815167 L72.5839634,4.41815167 L72.5839634,53.5187577 L60.9894577,53.5187577 C55.4912411,53.5224242 50.1389745,55.2814352 45.719959,58.538218 L45.719959,10.8959686 Z M83.6443936,8.83721996 L77.0223161,8.83721996 L77.0223161,2.2269501 C77.0264598,1.63755767 76.7948736,1.07108096 76.3782025,0.65355646 C75.9615314,0.235573647 75.3943063,0 74.8026794,0 L60.9889973,0 C54.4981367,0.0123744912 48.2512934,2.46481532 43.4998619,6.86646766 C38.7484304,2.46481532 32.5020475,0.0123744912 26.0111869,0 L12.1975048,0 C10.9718933,0 9.97786804,0.98950098 9.97786804,2.20907583 L9.97786804,8.83721996 L3.35579058,8.83721996 C2.47318456,8.83721996 1.6260301,9.18278908 0.998030821,9.8001387 C0.370491951,10.41703 0.0113721277,11.2552872 -0.000138123007,12.1338761 L-0.000138123007,64.5733032 C-0.000138123007,65.4596834 0.35345678,66.3089401 0.98283729,66.9354561 C1.61175739,67.561972 2.46535759,67.9139575 3.35579058,67.9139575 L3.35625099,67.9139575 L25.3905542,67.9139575 C29.1571686,67.9217488 32.7423815,69.5295161 35.24471,72.3325675 L35.5554868,72.6588874 L35.5550264,72.659804 C35.956504,73.0727454 36.3902102,73.4536047 36.8510806,73.7996321 C37.0370863,73.932085 37.2148046,74.0645379 37.3833146,74.1704086 C37.7907775,74.4394392 38.2143547,74.6814292 38.6535859,74.8954621 L38.8750431,75.0013327 C39.106169,75.1163697 39.3460426,75.2135323 39.5854558,75.3015287 C39.8907077,75.415649 40.2014844,75.5123534 40.5173257,75.593475 C40.7304955,75.6548892 41.0145685,75.7346359 41.3520491,75.7969667 C41.8327172,75.8918378 42.3189102,75.9541686 42.808326,75.9821257 L43.5003223,76 C44.2342159,75.9981667 44.9658074,75.9243781 45.6845075,75.7790924 C45.9685805,75.7259279 46.2084541,75.6640555 46.3327648,75.6200573 L46.3323044,75.6200573 C46.6992512,75.529311 47.0611335,75.417024 47.4151888,75.2845711 L47.5220039,75.2845711 L48.0809417,75.0457892 L48.240704,74.9665008 L48.2941115,74.9665008 L48.2941115,74.9660425 C48.7678734,74.7396352 49.2246002,74.4793125 49.6615293,74.1882828 L50.1228602,73.8702126 L50.1233206,73.8702126 C50.6150385,73.4765204 51.0722256,73.0420383 51.4898175,72.570891 L51.5966327,72.4650204 L51.7830987,72.2615287 L51.7830987,72.261987 C54.2587234,69.4832263 57.817693,67.901583 61.5483954,67.9231238 L83.6443936,67.9231238 C84.5362078,67.9231238 85.3911892,67.5697633 86.0205697,66.9409558 C86.6504107,66.313065 87.0026243,65.4610583 87.0003335,64.5733032 L87.0003335,12.1338761 C86.988812,11.2552872 86.6296922,10.41703 86.0016929,9.8001387 C85.3741541,9.18278908 84.5269996,8.83721996 83.6443936,8.83721996 L83.6443936,8.83721996 Z" id="Fill-1" fill="#020303" mask="url(#mask-2)"></path>
                </g>
                <path d="M20.694556,15.6243534 L20.694556,15.6335197 L24.3787571,15.6335197 C27.6241874,15.6390194 30.8258787,16.3865304 33.7356701,17.8164716 C34.823619,18.2940353 36.0961924,17.8338875 36.622441,16.7724312 C37.1482293,15.7105165 36.7407664,14.4254027 35.6979377,13.8570927 C32.1675136,12.1177892 28.2825737,11.2107849 24.3433055,11.2057434 L20.694556,11.2057434 C19.4684841,11.2057434 18.4753797,12.1952444 18.4753797,13.4152776 C18.4753797,14.635769 19.4684841,15.6243534 20.694556,15.6243534" id="Fill-4" fill="#AB1D35"></path>
                <path d="M20.694556,25.3980015 L20.694556,25.4067095 L24.3787571,25.4067095 C27.6241874,25.4126676 30.8258787,26.1592619 33.7356701,27.5896614 C34.823619,28.0672251 36.0961924,27.6075357 36.622441,26.5460793 C37.1482293,25.4841646 36.7407664,24.1990508 35.6979377,23.6307408 C32.1675136,21.890979 28.2825737,20.984433 24.3433055,20.9793915 L20.694556,20.9793915 C19.4684841,20.9793915 18.4753797,21.9679759 18.4753797,23.1884674 C18.4753797,24.4085005 19.4684841,25.3980015 20.694556,25.3980015" id="Fill-6" fill="#AB1D35"></path>
                <path d="M20.694556,35.1719705 L20.694556,35.1811367 L24.3787571,35.1811367 C27.6241874,35.1866365 30.8258787,35.9341474 33.7356701,37.3640886 C34.823619,37.8416523 36.0961924,37.3815046 36.622441,36.3200482 C37.1482293,35.2590502 36.7407664,33.9730197 35.6979377,33.4047098 C32.1675136,31.6654063 28.2825737,30.7588602 24.3433055,30.7533605 L20.694556,30.7533605 C19.4684841,30.7533605 18.4753797,31.7428615 18.4753797,32.9628946 C18.4753797,34.1833861 19.4684841,35.1719705 20.694556,35.1719705" id="Fill-8" fill="#AB1D35"></path>
                <path d="M33.7353018,47.1463073 C34.2661546,47.4355037 34.8927726,47.4964595 35.4696664,47.3154253 C36.0460997,47.1339328 36.5244658,46.7260329 36.791964,46.1856801 C37.0594622,45.6453273 37.093993,45.0201863 36.8872689,44.4537096 C36.6810052,43.8876912 36.2514426,43.4302934 35.6975694,43.1869284 C32.1671452,41.4476249 28.2822054,40.5406205 24.3429372,40.5355791 L20.6941877,40.5355791 C19.4681158,40.5355791 18.4750114,41.5250801 18.4750114,42.7446549 C18.4750114,43.9656047 19.4681158,44.9541891 20.6941877,44.9541891 L24.3783888,44.9541891 C27.6247399,44.962897 30.8259708,45.7131578 33.7353018,47.1463073 Z" id="Fill-10" fill="#AB1D35"></path>
                <path d="M52.0863708,18.0449872 L52.121362,18.0449872 C52.4606842,18.0445289 52.7944814,17.9652405 53.098352,17.8158299 C56.0224161,16.3794723 59.239301,15.6324197 62.4994644,15.632878 L66.1836655,15.632878 C67.4097374,15.632878 68.4028418,14.6433771 68.4028418,13.4238022 C68.4028418,12.2028524 67.4097374,11.2142183 66.1836655,11.2142183 L62.4994644,11.2142183 C59.4708873,11.20831 56.4653306,11.7376632 53.6218383,12.7780371 C52.7631735,13.0933575 51.921544,13.4531343 51.1010933,13.8564511 C50.1770504,14.3120157 49.690397,15.3404734 49.9256665,16.3391407 C50.1604757,17.3382662 51.0550523,18.0449872 52.0863708,18.0449872" id="Fill-12" fill="#AB1D35"></path>
                <path d="M52.0863708,27.8195978 L52.121362,27.8195978 C52.4606842,27.8182228 52.7944814,27.739851 53.098352,27.5895239 C56.0224161,26.1531663 59.239301,25.4070303 62.4994644,25.4070303 L66.1836655,25.4070303 C67.4097374,25.4070303 68.4028418,24.4179876 68.4028418,23.1974962 C68.4028418,21.977463 67.4097374,20.9883779 66.1836655,20.9883779 L62.4994644,20.9883779 C59.4708873,20.9829205 56.4653306,21.5122738 53.6218383,22.5526477 C52.7631735,22.8670514 51.921544,23.2272866 51.1010933,23.6310617 C50.1770504,24.0866263 49.690397,25.1146257 49.9256665,26.1137512 C50.1604757,27.1128768 51.0550523,27.8195978 52.0863708,27.8195978" id="Fill-14" fill="#AB1D35"></path>
                <path d="M52.0863708,37.5942084 L52.121362,37.5942084 C52.4606842,37.5928334 52.7944814,37.5140033 53.098352,37.3641345 C56.0224161,35.9277769 59.239301,35.1807243 62.4994644,35.1816409 L66.1836655,35.1816409 C67.4097374,35.1816409 68.4028418,34.1921399 68.4028418,32.9721067 C68.4028418,31.7516153 67.4097374,30.7629734 66.1836655,30.7629734 L62.4994644,30.7629734 C59.4708873,30.7566145 56.4653306,31.2868844 53.6218383,32.3267999 C52.7631735,32.641662 51.921544,33.0018972 51.1010933,33.4047556 C50.1770504,33.8603202 49.690397,34.8892362 49.9256665,35.8883618 C50.1604757,36.8870291 51.0550523,37.59375 52.0863708,37.5942084" id="Fill-16" fill="#AB1D35"></path>
                <path d="M66.1835734,44.9637678 C67.4096453,44.9637678 68.4027498,43.9742668 68.4027498,42.754692 C68.4027498,41.5337422 67.4096453,40.5451081 66.1835734,40.5451081 L62.4998328,40.5451081 C59.4707952,40.5391998 56.4652385,41.068553 53.6222066,42.1089269 C52.7630815,42.4242472 51.9214519,42.7840241 51.1010013,43.1873409 C50.1769583,43.6429055 49.6903049,44.6713632 49.9255745,45.6709471 C50.1603836,46.6696144 51.0554207,47.375877 52.0862787,47.375877 L52.1217303,47.367169 C52.4610525,47.3657941 52.7948498,47.2878806 53.09826,47.1370951 C56.0227845,45.7048624 59.2396694,44.9605596 62.4998328,44.9637678 L66.1835734,44.9637678 Z" id="Fill-18" fill="#AB1D35"></path>
            </g>
        </g>
    </g>
</svg>