<?xml version="1.0" encoding="UTF-8"?>
<svg width="59px" height="81px" viewBox="0 0 59 81" version="1.1" xmlns="http://www.w3.org/2000/svg" xmlns:xlink="http://www.w3.org/1999/xlink">
    <title>EC7A9C8A-8EC8-4042-AF8A-DBD7A041E2CF</title>
    <defs>
        <polygon id="path-1" points="0 0 59 0 59 81 0 81"></polygon>
    </defs>
    <g id="Pattern-Library" stroke="none" stroke-width="1" fill="none" fill-rule="evenodd">
        <g transform="translate(-948.000000, -6261.000000)" id="Group-17">
            <g transform="translate(948.000000, 6261.000000)" id="Group-16">
                <path d="M29.5022026,33.7640797 C31.963504,33.7640797 34.323579,32.7608253 36.0636422,30.9750709 C37.8041741,29.1888356 38.7812901,26.766789 38.7812901,24.241339 C38.7812901,21.7154079 37.8041741,19.2933613 36.0636422,17.507126 C34.323579,15.7213717 31.963504,14.7176363 29.5022026,14.7176363 C27.0423071,14.7224458 24.6845754,15.727143 22.9449808,17.5119355 C21.2058548,19.296728 20.2268642,21.7163698 20.2231151,24.241339 C20.2231151,26.766789 21.2002311,29.1888356 22.940763,30.9750709 C24.6808262,32.7608253 27.0409012,33.7640797 29.5022026,33.7640797" id="Fill-1" fill="#AB1D35"></path>
                <path d="M31.7384158,52.9672155 L31.7384158,52.9672155 C31.7384158,52.9672155 31.7384158,52.9672155 31.7384158,52.9672155 Z" id="Fill-3" fill="#020303"></path>
                <g id="Group-7">
                    <mask id="mask-2" fill="white">
                        <use xlink:href="#path-1"></use>
                    </mask>
                    <g id="Clip-6"></g>
                    <path d="M19.2897701,32.9866778 C20.6408615,34.6483479 22.3565554,35.9589272 24.295791,36.8106834 L24.2953223,36.8116453 L7.05637113,68.0241115 C5.96771859,66.1912243 5.37160752,64.0952595 5.32896121,61.9492762 C5.28678354,59.8037738 5.79947655,57.6847235 6.81502113,55.8080703 L19.2897701,32.9866778 Z M22.9451682,17.5117431 C24.6847628,15.7269506 27.042026,14.7222534 29.5023901,14.7174439 C31.9632228,14.7174439 34.3232978,15.7211793 36.0638297,17.5074146 C37.8038929,19.293169 38.7814776,21.7152155 38.7814776,24.2411466 C38.7814776,26.7670776 37.8038929,29.1891242 36.0638297,30.9748786 C34.3232978,32.7611139 31.9632228,33.7638873 29.5023901,33.7638873 C27.0410887,33.7638873 24.6810137,32.7611139 22.9404818,30.9748786 C21.2004186,29.1891242 20.2228339,26.7670776 20.2228339,24.2411466 C20.2270517,21.7166584 21.2060423,19.2970165 22.9451682,17.5117431 L22.9451682,17.5117431 Z M39.7145414,32.9886016 L52.1981945,55.8085512 C53.2132705,57.6852045 53.7254949,59.8042548 53.6837858,61.9497571 C53.6406709,64.0962214 53.0450284,66.1921862 51.9559073,68.0245924 L34.7085205,36.8126072 C36.6477561,35.9613319 38.36345,34.6502717 39.7145414,32.9886016 L39.7145414,32.9886016 Z M31.7382752,52.9671193 L31.7382752,52.9671193 L31.7382752,52.9671193 C31.7382752,52.9671193 31.7382752,52.9671193 31.7382752,52.9671193 L31.7382752,48.7299806 C31.7382752,47.5901374 30.8380163,46.6652773 29.7264004,46.6652773 C28.6152531,46.6652773 27.7145255,47.5901374 27.7145255,48.7299806 L27.7145255,52.942591 C25.3581996,52.7699312 23.03421,52.2808086 20.8011367,51.4886897 L28.350471,37.8192282 C28.7286641,37.8192282 29.1148241,37.8769418 29.5009841,37.8769418 C29.8876128,37.8769418 30.306109,37.8769418 30.6519659,37.8192282 L38.273471,51.6373022 C36.1570892,52.3553553 33.9619758,52.8016737 31.7382752,52.9671193 L31.7382752,52.9671193 Z M6.85391831,47.3179217 L3.29646613,53.8179137 L3.29693477,53.8179137 C1.76026164,56.6603075 1.08823076,59.910544 1.36613475,63.1482758 C1.64450737,66.3869696 2.8606302,69.4659891 4.85797722,71.9890344 L1.63935232,77.8613912 C1.35582465,78.3389711 1.27287523,78.9137022 1.41065562,79.4557289 C1.54749873,79.9967937 1.89288699,80.4575404 2.36715146,80.7326418 C2.84188457,81.0077432 3.40425351,81.0741139 3.92678798,80.9154015 C4.44932246,80.7576511 4.88750159,80.3882841 5.14009897,79.8933902 L18.8220666,55.1650448 C21.6901482,56.2630457 24.700228,56.9200186 27.7552972,57.114321 L27.7552972,61.48372 C27.7552972,62.6235632 28.6564935,63.5484233 29.7671721,63.5484233 C30.8783194,63.5484233 31.7795156,62.6235632 31.7795156,61.48372 L31.7795156,57.1061449 C34.6846198,56.9286756 37.5503582,56.3337448 40.2947187,55.3386665 L53.8796777,79.8943521 C54.4448585,80.8461452 55.6431729,81.1664556 56.58889,80.6176956 C57.5341385,80.0689357 57.8842132,78.8497363 57.380893,77.8623531 L54.1617994,71.9895154 C56.1582092,69.46647 57.3733947,66.3874505 57.6517673,63.1492377 C57.9296713,59.9115058 57.2585777,56.6622313 55.7228419,53.8188755 L52.1653897,47.3188836 C55.0658075,44.2273594 57.3410585,40.5779374 58.8617978,36.5812719 C59.2662348,35.5183802 58.7544791,34.3198615 57.718783,33.9052856 C56.6830868,33.4897478 55.5157026,34.0149414 55.1112656,35.0783141 C53.9293536,38.162624 52.2295935,41.0117511 50.0888424,43.494397 L42.0408742,28.7841672 C43.3839987,24.9495808 42.9800303,20.6989756 40.9409743,17.2029755 C38.9014496,13.7069753 35.4414747,11.3335043 31.5137963,10.7366497 L31.5137963,2.06470334 C31.5137963,0.923898232 30.6126001,0 29.5019214,0 C28.3907741,0 27.4895779,0.923898232 27.4895779,2.06470334 L27.4895779,10.7366497 C23.5618995,11.3354281 20.1019246,13.710342 18.0638058,17.2087468 C16.0261557,20.7061898 15.6249992,24.9582378 16.9709355,28.7923433 L8.92249873,43.5025731 C6.78221627,41.0199272 5.08198751,38.1712811 3.9005441,35.0860093 L3.9005441,35.0855283 C3.71402507,34.5651442 3.33208283,34.1438351 2.84001001,33.9158664 C2.34746855,33.6874168 1.78650553,33.6720265 1.28365397,33.8730622 C0.780333768,34.0736169 0.376365413,34.4732834 0.163133857,34.9826058 C-0.0496290589,35.4914472 -0.0547841075,36.0676211 0.150011915,36.5803101 C1.67262582,40.5779374 3.95162595,44.2268785 6.85391831,47.3179217 L6.85391831,47.3179217 Z" id="Fill-5" fill="#020303" mask="url(#mask-2)"></path>
                </g>
                <path d="M33.9776752,76.5141639 L33.9776752,76.5141639 C32.8660593,76.5872677 32.0234432,77.5708033 32.0942079,78.7116084 C32.1654413,79.8514517 33.1238117,80.7171554 34.2354277,80.6440515 L34.5006783,80.6440515 C35.6118256,80.49592 36.395393,79.4513042 36.2515203,78.3104991 C36.1062417,77.1706559 35.0888225,76.3660324 33.9776752,76.5141639" id="Fill-8" fill="#020303"></path>
                <path d="M24.1736632,76.5715889 C23.4182142,76.8091765 22.8670927,77.4776921 22.7663349,78.2823156 L22.7663349,78.2986678 C22.6974447,78.8421373 22.8422547,79.3913782 23.1679601,79.824711 C23.494134,80.2585248 23.9749595,80.5413213 24.5040549,80.6115395 L24.7618074,80.6115395 C25.5524044,80.6115395 26.2694248,80.1363644 26.5951301,79.3971496 C26.9203668,78.6584158 26.7943024,77.7917502 26.2727052,77.1828719 C25.7506394,76.5739936 24.9291121,76.3349632 24.1736632,76.5715889" id="Fill-10" fill="#020303"></path>
                <path d="M42.6849741,74.177822 L42.6451396,74.177822 C41.7514417,74.5568078 41.2467155,75.5355339 41.4435447,76.5065649 C41.6403738,77.4780769 42.4829899,78.168716 43.4497959,78.150921 C43.7089542,78.1499591 43.9648321,78.0989788 44.2061821,78.0023085 C45.2353172,77.5713805 45.728796,76.3651666 45.3088938,75.3094891 C44.8889917,74.2533306 43.7141093,73.7468939 42.6849741,74.177822" id="Fill-12" fill="#020303"></path>
                <path d="M13.7390012,76.891755 C13.9470777,77.3972297 14.3430792,77.7964153 14.8389012,78.0017795 C15.8605381,78.4057746 17.0101139,77.8998188 17.430016,76.8619363 C17.8438259,75.8062587 17.3475353,74.6058162 16.319806,74.1777739 C15.299575,73.7680074 14.147656,74.2710775 13.7277539,75.30896 L13.7277539,75.30896 C13.526707,75.8173205 13.5309247,76.3872421 13.7390012,76.891755" id="Fill-14" fill="#020303"></path>
            </g>
        </g>
    </g>
</svg>