<?xml version="1.0" encoding="UTF-8"?>
<svg width="73px" height="83px" viewBox="0 0 73 83" version="1.1" xmlns="http://www.w3.org/2000/svg" xmlns:xlink="http://www.w3.org/1999/xlink">
    <title>7376E5D5-E022-4814-9535-09464153067C</title>
    <defs>
        <polygon id="path-1" points="0 0 73 0 73 83 0 83"></polygon>
    </defs>
    <g id="Pattern-Library" stroke="none" stroke-width="1" fill="none" fill-rule="evenodd">
        <g transform="translate(-548.000000, -6261.000000)" id="Group-8">
            <g transform="translate(548.000000, 6261.000000)">
                <path d="M45.7029422,22.1943588 C43.6708982,22.1943588 41.7227389,22.9972722 40.2860223,24.4275408 C38.8487973,25.8567976 38.0419787,27.7960334 38.0419787,29.8182419 L38.0414703,29.817736 L38.050113,29.8607402 C38.061806,31.873842 38.8726917,33.8009354 40.306358,35.2215913 C41.7400243,36.6412354 43.6800493,37.4401014 45.7029422,37.4421251 C47.7349862,37.4421251 49.6836539,36.6392116 51.1203705,35.208943 C52.5570872,33.7796863 53.3644141,31.8404505 53.3644141,29.8182419 C53.3644141,27.7960334 52.5570872,25.8567976 51.1203705,24.4275408 C49.6836539,22.9972722 47.7349862,22.1943588 45.7029422,22.1943588" id="Fill-1" fill="#AB1D35"></path>
                <g id="Group-5">
                    <mask id="mask-2" fill="white">
                        <use xlink:href="#path-1"></use>
                    </mask>
                    <g id="Clip-4"></g>
                    <path d="M64.2470596,60.576606 C60.3009186,65.3809324 54.3811987,68.1458485 48.146784,68.0998087 L44.7420808,68.0998087 L44.7415724,61.6112361 L44.7415724,61.2383645 L48.1366161,61.160957 L48.1371245,61.1614629 C52.0837739,61.1589332 55.8372343,59.4645683 58.4381692,56.5099278 C61.0380874,53.5557933 62.2328093,49.6302701 61.7162828,45.7366205 C61.1992478,41.842971 59.0212952,38.3611498 55.7386061,36.1800787 C56.9775582,34.2747404 57.6364346,32.0537007 57.636943,29.7845975 L57.636943,29.3272353 C63.1946876,32.1392031 67.1728573,37.3057765 68.4570562,43.3769556 C69.7412552,49.4486406 68.1932006,55.7722796 64.2470596,60.576606 L64.2470596,60.576606 Z M40.4685351,78.7648467 L23.5792347,78.7648467 L23.5792347,61.6107301 C23.5817766,59.3826074 24.4719716,57.2460583 26.0545968,55.6705873 C27.6382388,54.0956223 29.784671,53.2092301 32.0236307,53.2072064 L32.0241391,53.2072064 C34.2630988,53.2092301 36.4095311,54.0956223 37.9926647,55.6705873 C39.5757983,57.2460583 40.4665016,59.3821015 40.4685351,61.6107301 L40.4685351,78.7648467 Z M51.1203705,35.209196 C49.6836539,36.6389587 47.7349862,37.4418721 45.7029422,37.4418721 C43.6800493,37.4403543 41.7400243,36.6414883 40.306358,35.2213384 C38.8726917,33.8011884 38.061806,31.874095 38.050113,29.8609932 L38.0414703,29.817483 L38.0419787,29.817989 C38.0419787,27.7962863 38.8487973,25.8565446 40.2860223,24.4272879 C41.7227389,22.9975252 43.6708982,22.1941058 45.7029422,22.1941058 C47.7349862,22.1941058 49.6836539,22.9975252 51.1203705,24.4272879 C52.5570872,25.8570506 53.3644141,27.7962863 53.3644141,29.817989 C53.3644141,31.8401975 52.5570872,33.7799393 51.1203705,35.209196 L51.1203705,35.209196 Z M34.8182632,25.0784218 C33.6194741,27.7831321 33.4786495,30.8359233 34.4237508,33.6392903 L30.2020611,37.7808463 L30.2020611,37.7813522 C29.8644886,38.1203264 29.404902,38.3110626 28.9249797,38.3110626 C28.4455657,38.3110626 27.9859791,38.1203264 27.6484066,37.7813522 L19.1191091,29.3100337 C18.7779778,28.974601 18.5858056,28.5167329 18.5858056,28.0391335 C18.5858056,27.56204 18.7779778,27.1041719 19.1191091,26.7687393 L41.2509509,4.74351341 L41.2504425,4.74351341 C41.5885234,4.40453924 42.04811,4.21380303 42.5280323,4.21380303 C43.0074463,4.21380303 43.4670329,4.40453924 43.8046054,4.74351341 L52.3679652,13.2573302 C52.7090965,13.5927629 52.9007604,14.0511369 52.9007604,14.5282304 C52.9007604,15.0053239 52.7090965,15.463192 52.3679652,15.7986246 L49.5077502,18.6196991 C46.6907485,17.6801842 43.6231093,17.821845 40.9057525,19.0168554 C38.1883957,20.2113599 36.0170522,22.3732056 34.8182632,25.0784218 L34.8182632,25.0784218 Z M18.1226602,41.7539271 L15.135347,38.8149705 L18.8979584,35.0700648 L21.8944226,38.0520256 L18.1226602,41.7539271 Z M56.1992096,24.226433 C55.4778009,22.9069634 54.5138891,21.734214 53.3557715,20.7704143 L55.3644294,18.7714786 L55.3654462,18.7714786 C56.4879764,17.644769 57.1178744,16.1224208 57.1178744,14.5358193 C57.1178744,12.9492179 56.4879764,11.4263638 55.3654462,10.3001601 L46.8183549,1.74435094 C45.6866737,0.627253986 44.1564129,-0.000101186319 42.5620946,-0.000101186319 C40.9677764,-0.000101186319 39.4385324,0.627253986 38.3058343,1.74435094 L16.1739925,23.7690709 L16.1745009,23.7690709 C15.0814575,24.8573297 14.4495258,26.3225076 14.4098712,27.8610456 C14.370725,29.3990776 14.9258894,30.8941055 15.9614845,32.0370049 L11.7987684,36.1790669 C11.1043045,36.8716872 10.7143676,37.8101903 10.7143676,38.788662 C10.7143676,39.7666278 11.1043045,40.7046249 11.7987684,41.3972453 L15.5700225,45.1502458 C16.2660115,45.8413484 17.2090792,46.2299038 18.1918015,46.2299038 C19.1750322,46.2299038 20.1175915,45.8413484 20.8135806,45.1502458 L24.9762967,41.0081839 C26.1242465,42.0387666 27.6270541,42.5912438 29.1730751,42.5517812 C30.7185877,42.5123185 32.1903834,41.8839515 33.2839352,40.7956926 L36.6469503,37.4494611 L36.6469503,37.450473 C38.5864669,39.7635922 41.3414447,41.251537 44.3480768,41.6107484 C47.3542004,41.9694539 50.3847269,41.1721057 52.819926,39.3816138 C55.2612258,40.7511707 56.9663735,43.1285432 57.4732407,45.8706924 C57.9811246,48.6133476 57.2388718,51.4384696 55.4472974,53.5836195 C53.6557229,55.7287695 50.9998816,56.9713375 48.1981316,56.9758908 L43.8310418,56.9758908 C42.5839555,53.8057235 40.1024927,51.2710062 36.9499521,49.9469832 C33.7974114,48.6234662 30.2422241,48.6234662 27.0896835,49.9469832 C23.9376513,51.2710062 21.4561885,53.8057235 20.2091022,56.9758908 L2.12813015,56.9758908 C0.953235555,56.9758908 0,57.9245126 0,59.0937205 C0,60.2639402 0.953235555,61.2115501 2.12813015,61.2115501 L2.12863854,61.2373526 L19.3402597,61.2373526 L19.3402597,61.6102242 L19.3402597,78.7643407 L9.12513332,78.7643407 C7.94973033,78.7643407 6.99700317,79.7129625 6.99700317,80.8821704 C6.99700317,82.0523901 7.94973033,83 9.12513332,83 L54.9470393,83 C56.1229507,83 57.0751695,82.0523901 57.0751695,80.8821704 C57.0751695,79.7129625 56.1229507,78.7643407 54.9470393,78.7643407 L44.7324213,78.7643407 L44.7324213,72.3349621 L48.1371245,72.3349621 C56.0461835,72.342551 63.4865047,68.6016929 68.1713397,62.2603463 C72.8571915,55.9195057 74.2283256,47.73758 71.863793,40.2265196 C69.4992604,32.7154592 63.6822358,26.7737986 56.1992096,24.226433 L56.1992096,24.226433 Z" id="Fill-3" fill="#020303" mask="url(#mask-2)"></path>
                </g>
                <path d="M32.1601849,59.4456465 C31.3792943,59.4456465 30.6553437,59.8514036 30.2516802,60.5161977 C29.8475083,61.1809918 29.8225971,62.0076841 30.1845724,62.695751 C30.5470561,63.3833121 31.2445704,63.8330852 32.0234274,63.8801369 L32.2959256,63.8801369 C33.075291,63.8330852 33.7728053,63.3833121 34.135289,62.695751 C34.4977727,62.0076841 34.4723531,61.1809918 34.0686896,60.5161977 C33.6640093,59.8514036 32.9405671,59.4456465 32.1601849,59.4456465" id="Fill-6" fill="#020303"></path>
            </g>
        </g>
    </g>
</svg>