<?xml version="1.0" encoding="utf-8"?>
<!-- Generator: Adobe Illustrator 26.5.0, SVG Export Plug-In . SVG Version: 6.00 Build 0)  -->
<svg version="1.1" id="Layer_2" xmlns="http://www.w3.org/2000/svg" xmlns:xlink="http://www.w3.org/1999/xlink" x="0px" y="0px"
	 viewBox="0 0 91 91" style="enable-background:new 0 0 91 91;" xml:space="preserve">
<style type="text/css">
	.st0{opacity:0.71;}
	.st1{fill:#CC1540;}
	.st2{fill:#FFFFFF;}
</style>
<circle class="st0" cx="45.5" cy="45.5" r="45.5"/>
<circle cx="45.5" cy="45.5" r="32.4"/>
<path class="st1" d="M45.5,78.8c-18.4,0-33.3-15-33.3-33.3s15-33.3,33.3-33.3s33.3,15,33.3,33.3S63.9,78.8,45.5,78.8z M45.5,14
	C28.1,14,14,28.1,14,45.5S28.1,77,45.5,77S77,62.9,77,45.5S62.9,14,45.5,14z"/>
<path class="st2" d="M61.6,34.3c-3.2,2.4-5.5,4.7-6.8,6.9c-1.4,2.2-2,4.6-2,7.2c0.9-0.6,1.9-0.8,3.1-0.8c1.6,0,2.9,0.5,3.9,1.6
	c1,1.1,1.5,2.4,1.5,4.1c0,1.9-0.6,3.4-1.9,4.5c-1.3,1.2-3,1.8-5.2,1.8c-4.9,0-7.4-3.2-7.4-9.7c0-1.7,0.2-3.3,0.6-4.8
	c0.4-1.5,1.1-2.9,2-4.3c0.9-1.4,2.2-2.9,3.8-4.3c1.6-1.5,3.6-3.1,5.9-4.8L61.6,34.3L61.6,34.3z M44.3,34.3c-3.2,2.4-5.5,4.7-6.8,6.9
	c-1.4,2.2-2,4.6-2,7.2c0.9-0.6,1.9-0.8,3.1-0.8c1.6,0,2.9,0.5,3.9,1.6c1,1.1,1.5,2.4,1.5,4.1c0,1.9-0.6,3.4-1.9,4.5
	c-1.3,1.2-3,1.8-5.2,1.8c-4.9,0-7.4-3.2-7.4-9.7c0-1.7,0.2-3.3,0.6-4.8c0.4-1.5,1.1-2.9,2-4.3c0.9-1.4,2.2-2.9,3.8-4.3
	c1.6-1.5,3.6-3.1,5.9-4.8L44.3,34.3L44.3,34.3z"/>
</svg>
