<?xml version="1.0" encoding="utf-8"?>
<!-- Generator: Adobe Illustrator 26.5.0, SVG Export Plug-In . SVG Version: 6.00 Build 0)  -->
<svg version="1.1" id="Layer_1" xmlns="http://www.w3.org/2000/svg" xmlns:xlink="http://www.w3.org/1999/xlink" x="0px" y="0px"
	 viewBox="0 0 1440 78.5" style="enable-background:new 0 0 1440 78.5;" xml:space="preserve">
<style type="text/css">
	.st0{fill-rule:evenodd;clip-rule:evenodd;fill:#231F20;enable-background:new    ;}
</style>
<polygon id="Fill-11" class="st0" points="453.5,28.1 452,25.4 450.5,28.1 "/>
<polygon id="Fill-12" class="st0" points="506.3,28.8 504,24.7 501.7,28.8 "/>
<polygon id="Fill-24" class="st0" points="810.5,48.3 816.5,59.3 822.5,48.3 "/>
<polygon id="Fill-25" class="st0" points="664.5,49.3 655.5,49.3 660,57.3 "/>
<polygon id="Fill-28" class="st0" points="716.5,48.3 706.5,48.3 711.5,57.3 "/>
<polygon id="Fill-81" class="st0" points="711.5,21.3 706.5,30.3 716.5,30.3 "/>
<polygon id="Fill-125" class="st0" points="973,15.8 964,31.8 982,31.8 "/>
<polygon id="Fill-126" class="st0" points="1024.5,15.3 1014.5,32.3 1034.5,32.3 "/>
<polygon id="Fill-127" class="st0" points="1076,14.3 1065.5,32.3 1086.5,32.3 "/>
<polygon id="Fill-128" class="st0" points="1129,13.8 1118,33.8 1140,33.8 "/>
<polygon id="Fill-129" class="st0" points="868,18.8 860,30.8 876,30.8 "/>
<polygon id="Fill-132" class="st0" points="920,17.3 911.5,31.3 928.5,31.3 "/>
<polygon id="Fill-135" class="st0" points="166.9,65.8 167.1,65.8 167,65.7 "/>
<polygon id="Fill-138" class="st0" points="166.9,12.7 167,12.8 167.1,12.7 "/>
<polygon id="Fill-146" class="st0" points="765,20.3 759.5,30.3 770.5,30.3 "/>
<polygon id="Fill-213" class="st0" points="218.9,66.6 218,65 217.1,66.6 "/>
<polygon id="Fill-216" class="st0" points="218,13.6 218.9,12 217.1,12 "/>
<polygon id="Fill-239" class="st0" points="1337,66.8 1351,42.8 1323,42.8 "/>
<polygon id="Fill-240" class="st0" points="1351,34.8 1337,10.8 1323,34.8 "/>
<polygon id="Fill-241" class="st0" points="1310.5,31.8 1327,2.8 1294,2.8 "/>
<polygon id="Fill-242" class="st0" points="1294,76.8 1327,76.8 1310.5,47.8 "/>
<polygon id="Fill-256" class="st0" points="452,54.1 453.5,51.4 450.5,51.4 "/>
<polygon id="Fill-264" class="st0" points="479,60.3 474.5,68.3 483.5,68.3 "/>
<polygon id="Fill-314" class="st0" points="1425,41.8 1440.5,68.8 1456,41.8 "/>
<polygon id="Fill-322" class="st0" points="1456,35.8 1440.5,8.8 1425,35.8 "/>
<polygon id="Fill-423" class="st0" points="1389,67.8 1404,41.8 1374,41.8 "/>
<polygon id="Fill-508" class="st0" points="1363,31.3 1380.5,1.3 1345.5,1.3 "/>
<polygon id="Fill-510" class="st0" points="1345.5,75.3 1380.5,75.3 1363,45.3 "/>
<polygon id="Fill-542" class="st0" points="1404,35.8 1389,9.8 1374,35.8 "/>
<polygon id="Fill-543" class="st0" points="1432.5,2.3 1396.5,2.3 1414.5,33.3 "/>
<polygon id="Fill-544" class="st0" points="1396.5,75.3 1432.5,75.3 1414.5,44.3 "/>
<polygon id="Fill-619" class="st0" points="1221,75.8 1206,49.8 1191,75.8 "/>
<polygon id="Fill-626" class="st0" points="535.5,69.3 530.5,60.3 525.5,69.3 "/>
<polygon id="Fill-630" class="st0" points="504,54.8 506.3,50.7 501.7,50.7 "/>
<polygon id="Fill-632" class="st0" points="1168.5,4.3 1139.5,4.3 1154,28.3 "/>
<polygon id="Fill-634" class="st0" points="1010.5,5.3 986.5,5.3 998.5,26.3 "/>
<polygon id="Fill-635" class="st0" points="1116,4.8 1089,4.8 1102.5,27.8 "/>
<polygon id="Fill-636" class="st0" points="1064,4.8 1038,4.8 1051,26.8 "/>
<polygon id="Fill-653" class="st0" points="957.5,5.3 934.5,5.3 946,25.3 "/>
<polygon id="Fill-665" class="st0" points="816.5,20.3 810.5,31.3 822.5,31.3 "/>
<polygon id="Fill-666" class="st0" points="1192,33.8 1180.5,12.8 1169,33.8 "/>
<polygon id="Fill-667" class="st0" points="1180.5,63.8 1192,42.8 1169,42.8 "/>
<polygon id="Fill-668" class="st0" points="664.5,30.3 660,22.3 655.5,30.3 "/>
<polygon id="Fill-670" class="st0" points="642.5,9.3 628.5,9.3 635.5,20.3 "/>
<polygon id="Fill-695" class="st0" points="800,5.8 781,5.8 790.5,22.8 "/>
<polygon id="Fill-697" class="st0" points="746.5,7.3 729.5,7.3 738,21.3 "/>
<polygon id="Fill-699" class="st0" points="695,8.8 679,8.8 687,20.8 "/>
<polygon id="Fill-720" class="st0" points="905,5.8 884,5.8 894.5,24.8 "/>
<polygon id="Fill-735" class="st0" points="852,5.8 832,5.8 842,23.8 "/>
<polygon id="Fill-760" class="st0" points="401.7,27.4 401,26.1 400.3,27.4 "/>
<polygon id="Fill-762" class="st0" points="401,51.3 401.7,50.2 400.3,50.2 "/>
<polygon id="Fill-763" class="st0" points="430.5,10.3 422.5,10.3 426.5,17.3 "/>
<polygon id="Fill-767" class="st0" points="483.5,9.3 474.5,9.3 479,17.3 "/>
<polygon id="Fill-769" class="st0" points="612.5,50.3 605.5,50.3 609,56.3 "/>
<polygon id="Fill-773" class="st0" points="535.5,9.3 525.5,9.3 530.5,18.3 "/>
<polygon id="Fill-775" class="st0" points="560,29.5 557,24 554,29.5 "/>
<polygon id="Fill-777" class="st0" points="642.5,70.3 635.5,59.3 628.5,70.3 "/>
<polygon id="Fill-827" class="st0" points="426.5,61.3 422.5,68.3 430.5,68.3 "/>
<polygon id="Fill-865" class="st0" points="1168.5,74.3 1154,50.3 1139.5,74.3 "/>
<polygon id="Fill-866" class="st0" points="800,71.8 790.5,54.8 781,71.8 "/>
<polygon id="Fill-867" class="st0" points="759.5,48.3 765,58.3 770.5,48.3 "/>
<polygon id="Fill-869" class="st0" points="374,16.7 377,10.8 371,10.8 "/>
<polygon id="Fill-870" class="st0" points="377,67.7 374,61.8 371,67.7 "/>
<polygon id="Fill-871" class="st0" points="746.5,70.3 738,56.3 729.5,70.3 "/>
<polygon id="Fill-872" class="st0" points="695,69.8 687,57.8 679,69.8 "/>
<polygon id="Fill-873" class="st0" points="1065.5,44.3 1076,62.3 1086.5,44.3 "/>
<polygon id="Fill-874" class="st0" points="957.5,73.3 946,53.3 934.5,73.3 "/>
<polygon id="Fill-876" class="st0" points="1116,73.8 1102.5,50.8 1089,73.8 "/>
<polygon id="Fill-878" class="st0" points="1010.5,73.3 998.5,52.3 986.5,73.3 "/>
<polygon id="Fill-880" class="st0" points="964,44.8 973,60.8 982,44.8 "/>
<polygon id="Fill-881" class="st0" points="1064,73.8 1051,51.8 1038,73.8 "/>
<polygon id="Fill-882" class="st0" points="1014.5,44.3 1024.5,61.3 1034.5,44.3 "/>
<polygon id="Fill-883" class="st0" points="1118,43.8 1129,63.8 1140,43.8 "/>
<polygon id="Fill-889" class="st0" points="587.5,69.3 582,59.3 576.5,69.3 "/>
<polygon id="Fill-890" class="st0" points="557,55.5 560,50 554,50 "/>
<polygon id="Fill-903" class="st0" points="911.5,46.3 920,60.3 928.5,46.3 "/>
<polygon id="Fill-904" class="st0" points="852,71.8 842,53.8 832,71.8 "/>
<polygon id="Fill-905" class="st0" points="860,46.8 868,58.8 876,46.8 "/>
<polygon id="Fill-906" class="st0" points="905,72.8 894.5,53.8 884,72.8 "/>
<polygon id="Fill-907" class="st0" points="611.5,29.3 608,23.3 604.5,29.3 "/>
<polygon id="Fill-909" class="st0" points="587.5,9.3 576.5,9.3 582,19.3 "/>
<polygon id="Fill-931" class="st0" points="1297,34.8 1283.5,11.8 1270,34.8 "/>
<polygon id="Fill-932" class="st0" points="1206,29.8 1221,3.8 1191,3.8 "/>
<polygon id="Fill-935" class="st0" points="1283.5,65.8 1297,42.8 1270,42.8 "/>
<polygon id="Fill-965" class="st0" points="271.7,67.3 270,64.2 268.3,67.3 "/>
<polygon id="Fill-966" class="st0" points="270,14.3 271.7,11.2 268.3,11.2 "/>
<polygon id="Fill-1067" class="st0" points="1232,65.8 1245,43.8 1219,43.8 "/>
<polygon id="Fill-1068" class="st0" points="1245,34.8 1232,12.8 1219,34.8 "/>
<polygon id="Fill-1111" class="st0" points="325.5,67 323,62.5 320.5,67 "/>
<polygon id="Fill-1112" class="st0" points="323,15 325.6,10.5 320.4,10.5 "/>
<polygon id="Fill-1159" class="st0" points="1273.5,76.3 1258,48.3 1242.5,76.3 "/>
<polygon id="Fill-1168" class="st0" points="1258,30.3 1273.5,2.3 1242.5,2.3 "/>
<polygon id="Fill-1284" class="st0" points="1440,-2.4 1440.5,-3.3 1440,-4.1 1439.5,-3.2 "/>
<polygon id="Fill-1357" class="st0" points="1440,82.6 1440.5,81.7 1440,80.9 1439.5,81.8 "/>
</svg>
