<?xml version="1.0" encoding="utf-8"?>
<!-- Generator: Adobe Illustrator 26.5.0, SVG Export Plug-In . SVG Version: 6.00 Build 0)  -->
<svg version="1.1" id="Layer_1" xmlns="http://www.w3.org/2000/svg" xmlns:xlink="http://www.w3.org/1999/xlink" x="0px" y="0px"
	 viewBox="0 0 78.5 1244" style="enable-background:new 0 0 78.5 1244;" xml:space="preserve">
<style type="text/css">
	.st0{fill:#231F20;enable-background:new    ;}
</style>
<polygon class="st0" points="7.4,642.3 7.4,652.6 16.9,647.5 "/>
<polygon class="st0" points="32.4,979 32.4,953.5 10.8,966.2 "/>
<polygon class="st0" points="8.4,601.6 16.9,596.9 8.4,592.2 "/>
<polygon class="st0" points="69.8,701.8 69.8,690.4 59.4,696.1 "/>
<polygon class="st0" points="68.9,544 61.2,548.3 68.9,552.5 "/>
<polygon class="st0" points="69.8,592.2 61.2,596.9 69.8,601.6 "/>
<polygon class="st0" points="6.4,785.8 6.4,801.9 19.6,793.9 "/>
<polygon class="st0" points="5.9,835.4 5.9,852.4 21.1,843.9 "/>
<polygon class="st0" points="5.6,883.1 5.6,902 21.6,892.6 "/>
<polygon class="st0" points="6.9,737.2 6.9,752.3 18.2,744.7 "/>
<polygon class="st0" points="24.9,82.5 24.8,82.6 24.9,82.7 "/>
<polygon class="st0" points="53.1,82.5 53.1,82.7 53.4,82.6 "/>
<polygon class="st0" points="5.6,931.3 5.6,951.1 22.6,941.2 "/>
<polygon class="st0" points="25.6,129.9 24.1,130.8 25.6,131.7 "/>
<polygon class="st0" points="52.4,129.9 52.4,131.7 53.9,130.8 "/>
<polygon class="st0" points="74.9,1201 74.9,1174.5 52.2,1187.7 "/>
<polygon class="st0" points="42.9,1147.1 42.9,1178.3 70.2,1162.7 "/>
<polygon class="st0" points="33.4,1178.3 33.4,1147.1 5.9,1162.7 "/>
<polygon class="st0" points="66.8,350.4 64.2,351.8 66.8,353.2 "/>
<polygon class="st0" points="50.9,373.1 50.9,381.6 58.4,377.3 "/>
<polygon class="st0" points="8.9,398.7 8.9,403.1 12.6,400.9 "/>
<polygon class="st0" points="4.1,1174.5 4.1,1201 26.8,1187.7 "/>
<polygon class="st0" points="51.4,1236.8 63.8,1244 75.9,1244 75.9,1222.7 "/>
<polygon class="st0" points="44.2,1228.8 72.6,1212.3 44.2,1195.8 "/>
<polygon class="st0" points="34.9,1228.8 34.9,1195.8 6.4,1212.3 "/>
<polygon class="st0" points="3.1,1222.7 3.1,1244 15.4,1244 27.8,1236.8 "/>
<polygon class="st0" points="44.2,1244 44.4,1244 44.2,1243.9 "/>
<polygon class="st0" points="34.6,1244 34.9,1244 34.9,1243.9 "/>
<polygon class="st0" points="43.8,1049.8 43.8,1078.2 68.4,1064 "/>
<polygon class="st0" points="49.9,421.2 49.9,430.7 58.4,426 "/>
<polygon class="st0" points="9.2,502.5 14.9,499.2 9.2,495.9 "/>
<polygon class="st0" points="9.4,353.2 11.9,351.8 9.4,350.4 "/>
<polygon class="st0" points="28.1,469.4 18.8,474.6 28.1,479.8 "/>
<polygon class="st0" points="67.4,398.7 63.6,400.9 67.4,403.1 "/>
<polygon class="st0" points="74.9,1050.8 74.9,1029 55.1,1039.9 "/>
<polygon class="st0" points="4.1,1029 4.1,1050.8 23.9,1039.9 "/>
<polygon class="st0" points="27.2,373.1 19.6,377.3 27.2,381.6 "/>
<polygon class="st0" points="32.4,1078.2 32.4,1049.8 7.9,1064 "/>
<polygon class="st0" points="9.1,303 9.1,304.3 10.4,303.6 "/>
<polygon class="st0" points="67.9,303 66.9,303.6 67.9,304.3 "/>
<polygon class="st0" points="67.9,496.8 62.1,500.1 67.9,503.4 "/>
<polygon class="st0" points="29.6,680.5 29.6,662.6 13.6,671.5 "/>
<polygon class="st0" points="29.1,630 29.1,613.9 15.9,622 "/>
<polygon class="st0" points="27.8,566.2 16.4,573.8 27.8,581.3 "/>
<polygon class="st0" points="4.1,980.9 4.1,1001.7 22.9,991.3 "/>
<polygon class="st0" points="48.9,518.5 48.9,531.7 59.4,525.1 "/>
<polygon class="st0" points="32.4,929.9 32.4,905.3 11.6,917.6 "/>
<polygon class="st0" points="30.6,779.7 30.6,759.9 12.6,769.8 "/>
<polygon class="st0" points="31.1,829.3 31.1,807.6 12.1,818.4 "/>
<polygon class="st0" points="31.1,879.3 31.1,856.7 11.1,868 "/>
<polygon class="st0" points="30.6,729.6 30.6,710.7 13.6,720.2 "/>
<polygon class="st0" points="50.9,323.9 50.9,331.5 57.4,327.7 "/>
<polygon class="st0" points="27.2,323.9 20.6,327.7 27.2,331.5 "/>
<polygon class="st0" points="26.6,275.3 21.1,278.1 26.6,281 "/>
<polygon class="st0" points="45.1,1001.2 45.1,1028.6 67.9,1014.9 "/>
<polygon class="st0" points="47.6,662.6 47.6,680.5 63.6,671.5 "/>
<polygon class="st0" points="60.4,647.5 69.8,652.6 69.8,642.3 "/>
<polygon class="st0" points="32.9,1028.6 32.9,1001.2 10.2,1014.9 "/>
<polygon class="st0" points="51.4,275.3 51.4,281 56.9,278.1 "/>
<polygon class="st0" points="48.9,613.9 48.9,630 62.1,622 "/>
<polygon class="st0" points="49.4,581.3 60.8,573.8 49.4,566.2 "/>
<polygon class="st0" points="73.6,951.1 73.6,931.3 56.6,941.2 "/>
<polygon class="st0" points="46.1,807.6 46.1,829.3 65.1,818.4 "/>
<polygon class="st0" points="45.6,953.5 45.6,979 67.4,966.2 "/>
<polygon class="st0" points="7.4,690.4 7.4,701.8 17.9,696.1 "/>
<polygon class="st0" points="46.1,856.7 46.1,879.3 65.9,868 "/>
<polygon class="st0" points="8.4,552.5 15.9,548.3 8.4,544 "/>
<polygon class="st0" points="73.1,852.4 73.1,835.4 57.9,843.9 "/>
<polygon class="st0" points="45.6,905.3 45.6,929.9 66.4,917.6 "/>
<polygon class="st0" points="73.6,902 73.6,883.1 57.4,892.6 "/>
<polygon class="st0" points="74.1,1001.7 74.1,980.9 55.1,991.3 "/>
<polygon class="st0" points="28.1,518.5 17.9,525.1 28.1,531.7 "/>
<polygon class="st0" points="49.9,469.4 49.9,479.8 59.4,474.6 "/>
<polygon class="st0" points="68.1,448.2 62.9,451 68.1,453.8 "/>
<polygon class="st0" points="71.6,801.9 71.6,785.8 58.4,793.9 "/>
<polygon class="st0" points="47.6,710.7 47.6,729.6 64.6,720.2 "/>
<polygon class="st0" points="71.1,752.3 71.1,737.2 59.9,744.7 "/>
<polygon class="st0" points="46.6,759.9 46.6,779.7 64.6,769.8 "/>
<polygon class="st0" points="4.1,1124.4 4.1,1149.9 25.9,1137.2 "/>
<polygon class="st0" points="74.9,1149.9 74.9,1124.4 53.2,1137.2 "/>
<polygon class="st0" points="26.4,178.3 23.4,179.9 26.4,181.5 "/>
<polygon class="st0" points="51.8,178.3 51.8,181.5 54.6,179.9 "/>
<polygon class="st0" points="74.1,1100.8 74.1,1076.3 53.2,1088.6 "/>
<polygon class="st0" points="4.1,1076.3 4.1,1100.8 24.9,1088.6 "/>
<polygon class="st0" points="52.1,232.4 56.2,230 52.1,227.6 "/>
<polygon class="st0" points="26.1,227.5 21.9,230 26.1,232.4 "/>
<polygon class="st0" points="28.1,421.2 19.6,426 28.1,430.7 "/>
<polygon class="st0" points="8.1,448.2 8.1,453.8 13.2,451 "/>
<polygon class="st0" points="43.4,1098.5 43.4,1127.8 69.8,1113.1 "/>
<polygon class="st0" points="32.9,1127.8 32.9,1098.5 6.4,1113.1 "/>
</svg>
