<!-- Generated by IcoMoon.io -->
<svg version="1.1" xmlns="http://www.w3.org/2000/svg" width="50" height="32" viewBox="0 0 50 32">
<title>appointment</title>
<path fill="#ab0032" d="M21.768 10.653h-10.147c-0.589 0-1.095 0.463-1.095 1.053v10.316c0 0.589 0.463 1.053 1.095 1.053h10.147c0.589 0 1.095-0.463 1.095-1.053v-10.316c-0.042-0.589-0.505-1.053-1.095-1.053zM20.674 20.926h-7.958v-8.126h7.958v8.126z"></path>
<path fill="#ab0032" d="M33.853 19.326h-6.147c-0.589 0-1.095 0.463-1.095 1.053s0.463 1.053 1.095 1.053h6.147c0.589 0 1.095-0.463 1.095-1.053-0.042-0.589-0.505-1.053-1.095-1.053z"></path>
<path d="M49.516 27.2c0-0.505-0.421-0.926-0.926-0.926h-2.821v-22.947c0-0.8-0.295-1.558-0.884-2.147-0.042-0.042-0.042-0.042-0.042-0.042-0.589-0.589-1.389-0.926-2.232-0.926h-35.537c-0.8 0-1.6 0.295-2.189 0.884l-0.042 0.042c-0.589 0.547-0.926 1.347-0.926 2.189v22.989h-2.821c-0.505 0-0.926 0.421-0.926 0.926v2.232c0 0.589 0.211 1.179 0.632 1.6l0.042-0.042 0.042 0.126c0.463 0.421 1.053 0.674 1.684 0.674h44.505c0.632 0 1.263-0.253 1.684-0.716 0.463-0.463 0.716-1.053 0.716-1.684v-2.232zM5.768 3.326c0-0.337 0.126-0.674 0.379-0.926l0.126-0.211 0.042 0.084c0.211-0.168 0.505-0.253 0.8-0.253h35.495c0.337 0 0.674 0.126 0.926 0.379l0.042 0.042c0.211 0.253 0.337 0.547 0.337 0.884v1.137h-38.147v-1.137zM5.768 6.274h38.147v20.042h-38.147v-20.042zM47.495 29.853c-0.084 0.084-0.253 0.168-0.379 0.168h-44.547c-0.168 0-0.295-0.042-0.421-0.168l-0.084-0.084c-0.042-0.084-0.084-0.211-0.084-0.295v-1.305h45.642v1.305c0.042 0.126-0.042 0.253-0.126 0.379z"></path>
<path fill="#ab0032" d="M37.221 10.947h-9.516c-0.589 0-1.095 0.463-1.095 1.053s0.463 1.053 1.095 1.053h9.516c0.589 0 1.095-0.463 1.095-1.053-0.042-0.589-0.505-1.053-1.095-1.053z"></path>
<path fill="#ab0032" d="M37.221 15.116h-9.516c-0.589 0-1.095 0.463-1.095 1.053s0.463 1.053 1.095 1.053h9.516c0.589 0 1.095-0.463 1.095-1.053s-0.505-1.053-1.095-1.053z"></path>
</svg>
