<!-- Generated by IcoMoon.io -->
<svg version="1.1" xmlns="http://www.w3.org/2000/svg" width="32" height="32" viewBox="0 0 32 32">
<title>call</title>
<path d="M0.379 9.263c-0.042 0.084-0.084 0.211-0.126 0.337-0.8 4.505 1.853 10.568 6.737 15.453 4.253 4.253 9.516 6.863 13.811 6.863 0.589 0 1.137-0.042 1.642-0.126 0.126 0 0.211-0.042 0.337-0.126 2.737-1.726 4-3.832 3.663-6.147-0.042-0.168-0.084-0.337-0.211-0.463-1.516-1.684-3.411-2.989-5.811-3.916-0.716-0.295-1.516-0.126-2.105 0.379-0.547 0.505-1.389 1.347-2.484 2.653l-0.042 0.084-0.084-0.042c-1.6-0.884-3.074-2.063-4.421-3.411s-2.484-2.863-3.411-4.421l-0.042-0.084 0.084-0.042c1.305-1.095 2.189-1.979 2.653-2.484 0.505-0.547 0.674-1.389 0.379-2.105-0.968-2.4-2.232-4.295-3.916-5.811-0.126-0.126-0.295-0.211-0.463-0.211-0.253-0.042-0.463-0.042-0.674-0.042-2.105-0.042-4 1.221-5.516 3.663zM1.979 10.063c0.842-1.263 2.189-2.779 3.958-2.695h0.042l0.042 0.042c1.347 1.305 2.442 2.905 3.242 4.926 0.042 0.084 0 0.168-0.042 0.211-0.463 0.505-1.305 1.347-2.568 2.4-0.674 0.547-0.842 1.516-0.421 2.274 0.968 1.768 2.232 3.411 3.747 4.884 1.474 1.474 3.116 2.737 4.884 3.747 0.758 0.421 1.726 0.253 2.274-0.421 1.053-1.263 1.895-2.105 2.4-2.568 0.042-0.042 0.126-0.084 0.211-0.042 2.021 0.8 3.621 1.853 4.926 3.242l0.042 0.042v0.042c0.084 1.768-1.432 3.116-2.695 3.958h-0.042c-0.379 0.042-0.758 0.084-1.137 0.084-3.747 0-8.632-2.442-12.547-6.358-4.379-4.379-6.905-9.895-6.316-13.726v-0.042z"></path>
<path fill="#ab0032" d="M30.316 19.158c0.168 0.168 0.379 0.295 0.632 0.295 0 0 0.042 0 0.042 0 0.463 0 0.884-0.379 0.884-0.842 0.253-4.968-1.642-9.853-5.137-13.347s-8.379-5.389-13.347-5.137c-0.505 0.042-0.884 0.463-0.842 0.926 0 0.253 0.126 0.463 0.295 0.632s0.421 0.253 0.632 0.211c0.253 0 0.505 0 0.8 0 4.211 0 8.253 1.684 11.2 4.632 3.158 3.158 4.842 7.537 4.632 12-0.042 0.253 0.042 0.463 0.211 0.632z"></path>
<path fill="#ab0032" d="M25.726 18.947c0.168 0.168 0.379 0.295 0.632 0.295h0.042c0.463 0 0.884-0.379 0.884-0.842 0.168-3.663-1.221-7.242-3.789-9.853-2.611-2.611-6.189-3.958-9.853-3.789-0.253 0-0.463 0.126-0.632 0.295s-0.253 0.421-0.211 0.632c0 0.253 0.126 0.463 0.295 0.632s0.379 0.253 0.632 0.211c0.168 0 0.379 0 0.547 0 2.989 0 5.853 1.179 7.958 3.284 2.232 2.232 3.411 5.347 3.284 8.505-0.042 0.211 0.042 0.421 0.211 0.632z"></path>
<path fill="#ab0032" d="M18.947 13.053c1.305 1.305 2.021 3.158 1.937 5.011-0.042 0.505 0.379 0.926 0.842 0.926h0.042c0.463 0 0.884-0.379 0.884-0.842 0.126-2.358-0.758-4.674-2.442-6.358s-4-2.568-6.358-2.442c-0.505 0.042-0.884 0.463-0.842 0.926 0 0.253 0.126 0.463 0.295 0.632s0.421 0.253 0.632 0.211c0.084 0 0.211 0 0.295 0 1.768 0 3.495 0.716 4.716 1.937z"></path>
</svg>
