<!-- Generated by IcoMoon.io -->
<svg version="1.1" xmlns="http://www.w3.org/2000/svg" width="36" height="32" viewBox="0 0 36 32">
<title>chat</title>
<path d="M32.421 23.537c1.895 0 3.411-1.558 3.411-3.411v-16.421c0-1.895-1.558-3.411-3.411-3.411h-23.789c-1.895 0-3.411 1.558-3.411 3.411v10.526h-2.358c-1.389 0-2.611 1.179-2.611 2.568v7.832c0 1.389 1.179 2.568 2.611 2.568h0.463l-0.589 3.368c-0.084 0.379 0.126 0.842 0.505 1.011 0.337 0.168 0.842 0.126 1.137-0.168l4.295-4.211h6.105c1.389 0 2.611-1.179 2.611-2.568v-1.095h2.4l7.958 7.916c0.295 0.295 0.758 0.337 1.095 0.168s0.589-0.589 0.547-0.968l-0.716-7.158h3.747zM15.453 24.632c0 0.379-0.295 0.632-0.674 0.632h-6.484c-0.253 0-0.505 0.084-0.674 0.253l-2.442 2.4 0.253-1.558c0.042-0.253-0.042-0.547-0.253-0.758s-0.463-0.379-0.716-0.379c0 0 0 0 0 0h-1.6c-0.379 0-0.674-0.253-0.674-0.632v-7.789c0-0.379 0.295-0.632 0.674-0.632h2.316v3.958c0 1.895 1.558 3.411 3.411 3.411h6.821v1.095zM27.579 21.6c-0.253 0-0.505 0.126-0.674 0.337-0.211 0.211-0.295 0.463-0.253 0.716l0.547 5.516-6.316-6.274c-0.168-0.168-0.421-0.295-0.674-0.295h-11.579c-0.842 0-1.474-0.632-1.474-1.474v-16.421c0-0.842 0.632-1.474 1.474-1.474h23.789c0.842 0 1.474 0.632 1.474 1.474v16.421c0 0.842-0.632 1.474-1.474 1.474h-4.842z"></path>
<path fill="#ab0032" d="M29.558 5.347c0.674 0 1.221 0.547 1.221 1.221s-0.547 1.221-1.221 1.221h-18.063c-0.674 0-1.221-0.547-1.221-1.221s0.547-1.221 1.221-1.221h18.063z"></path>
<path fill="#ab0032" d="M29.558 10.653c0.674 0 1.221 0.547 1.221 1.221s-0.547 1.221-1.221 1.221h-18.063c-0.674 0-1.221-0.547-1.221-1.221s0.547-1.221 1.221-1.221h18.063z"></path>
<path fill="#ab0032" d="M29.558 16c0.674 0 1.221 0.547 1.221 1.221s-0.547 1.221-1.221 1.221h-18.063c-0.674 0-1.221-0.547-1.221-1.221s0.547-1.221 1.221-1.221h18.063z"></path>
</svg>
