<!-- Generated by IcoMoon.io -->
<svg version="1.1" xmlns="http://www.w3.org/2000/svg" width="36" height="32" viewBox="0 0 36 32">
<title>chat</title>
<path fill="#fff" d="M33.049 23.607c1.874 0 3.372-1.499 3.372-3.372v-16.862c0-1.874-1.499-3.372-3.372-3.372h-24.581c-1.874 0-3.372 1.499-3.372 3.372v11.016h-2.623c-1.349 0-2.473 1.124-2.473 2.473v8.094c0 1.349 1.124 2.473 2.473 2.473h0.749l-0.6 3.672c-0.075 0.3 0.15 0.674 0.45 0.824s0.674 0.075 0.899-0.15l4.496-4.422h6.37c1.349 0 2.473-1.124 2.473-2.473v-1.349h2.773l8.244 8.244c0.225 0.225 0.6 0.3 0.899 0.15s0.45-0.45 0.45-0.824l-0.749-7.569 4.122 0.075zM15.738 24.956c0 0.525-0.375 0.899-0.899 0.899h-6.67c-0.225 0-0.375 0.075-0.525 0.225l-2.923 2.923 0.375-2.173c0-0.225-0.075-0.45-0.225-0.6-0.15-0.225-0.375-0.3-0.6-0.3h-1.649c-0.525 0-0.899-0.375-0.899-0.899v-8.169c0-0.525 0.375-0.899 0.899-0.899h2.623v4.272c0 1.874 1.499 3.372 3.372 3.372h7.269v1.349h-0.15zM28.028 22.033c-0.225 0-0.375 0.075-0.6 0.3s-0.225 0.375-0.225 0.6l0.6 6.22-6.895-6.895c-0.15-0.15-0.375-0.225-0.6-0.225h-11.841c-0.974 0-1.724-0.749-1.724-1.724v-16.937c0-0.974 0.749-1.724 1.724-1.724h24.506c0.974 0 1.724 0.749 1.724 1.724v16.937c0 0.974-0.749 1.724-1.724 1.724h-4.946z"></path>
<path fill="#000" d="M34.773 20.234v-16.862c0-0.974-0.749-1.724-1.724-1.724h-24.581c-0.974 0-1.724 0.749-1.724 1.724v16.937c0 0.974 0.749 1.724 1.724 1.724h11.916c0.225 0 0.45 0.075 0.6 0.225l6.895 6.895-0.6-6.22c0-0.225 0.075-0.45 0.225-0.6s0.375-0.3 0.6-0.3h4.946c0.974 0 1.724-0.749 1.724-1.799zM11.466 18.585c-0.674 0-1.274-0.6-1.274-1.274s0.6-1.274 1.274-1.274h18.585c0.674 0 1.274 0.6 1.274 1.274s-0.6 1.274-1.274 1.274h-18.585zM30.052 13.115h-18.585c-0.674 0-1.274-0.6-1.274-1.274s0.6-1.274 1.274-1.274h18.585c0.674 0 1.274 0.6 1.274 1.274s-0.525 1.274-1.274 1.274zM30.052 7.569h-18.585c-0.674 0-1.274-0.6-1.274-1.274s0.6-1.274 1.274-1.274h18.585c0.674 0 1.274 0.6 1.274 1.274 0 0.749-0.525 1.274-1.274 1.274z"></path>
<path fill="#000" d="M5.171 20.234v-4.272h-2.623c-0.525 0-0.899 0.375-0.899 0.899v8.094c0 0.525 0.375 0.899 0.899 0.899h1.649c0.225 0 0.45 0.075 0.6 0.3s0.225 0.45 0.225 0.6l-0.375 2.173 2.923-2.923c0.15-0.15 0.375-0.225 0.525-0.225h6.67c0.525 0 0.899-0.375 0.899-0.899v-1.349h-7.269c-1.724 0.075-3.222-1.424-3.222-3.297z"></path>
<path fill="#ab0032" d="M30.052 5.021h-18.585c-0.674 0-1.274 0.6-1.274 1.274s0.6 1.274 1.274 1.274h18.585c0.674 0 1.274-0.6 1.274-1.274s-0.525-1.274-1.274-1.274z"></path>
<path fill="#ab0032" d="M30.052 10.567h-18.585c-0.674 0-1.274 0.6-1.274 1.274s0.6 1.274 1.274 1.274h18.585c0.674 0 1.274-0.6 1.274-1.274 0-0.749-0.525-1.274-1.274-1.274z"></path>
<path fill="#ab0032" d="M31.326 17.311c0-0.674-0.6-1.274-1.274-1.274h-18.585c-0.674 0-1.274 0.6-1.274 1.274s0.6 1.274 1.274 1.274h18.585c0.749 0 1.274-0.6 1.274-1.274z"></path>
</svg>
