<!-- Generated by IcoMoon.io -->
<svg version="1.1" xmlns="http://www.w3.org/2000/svg" width="32" height="32" viewBox="0 0 32 32">
<title>email</title>
<path d="M32.253 13.432c0 0 0-0.042-0.042-0.042-0.042-0.084-0.084-0.168-0.168-0.211l-5.053-4.379v-3.579c0-0.421-0.379-0.8-0.8-0.8h-4.337l-5.347-4.547c-0.295-0.253-0.758-0.253-1.053 0l-5.305 4.547h-4.337c-0.421 0-0.8 0.379-0.8 0.8v3.579l-5.053 4.337-0.042 0.042c-0.042 0.042-0.084 0.126-0.126 0.211 0 0.042-0.042 0.042-0.042 0.084-0.042 0.084-0.042 0.211-0.042 0.295v17.853c0 0.084 0 0.126 0.042 0.211l0.042 0.084c0 0 0 0 0 0.042 0.042 0.084 0.084 0.126 0.126 0.168s0.042 0.042 0.084 0.084 0.084 0.084 0.168 0.126c0.042 0 0.042 0.042 0.084 0.042 0.084 0.042 0.211 0.042 0.295 0.042h31.032c0.084 0 0.168 0 0.295-0.042 0.042 0 0.042 0 0.084-0.042s0.126-0.084 0.168-0.126c0.042-0.042 0.042-0.042 0.084-0.084s0.084-0.126 0.126-0.168l0.042-0.084c0.042-0.084 0.042-0.126 0.042-0.211v-17.853c-0.084-0.168-0.126-0.253-0.168-0.379zM1.726 13.726l3.284-2.821v5.642l-3.284-2.821zM12.589 4.421l3.411-2.863 3.411 2.905h-6.821zM26.989 16.547v-5.642l3.284 2.821-3.284 2.821zM30.695 15.495v14.274l-8.379-7.158 8.379-7.116zM15.495 17.642l-4.589 3.916-4.253-3.621v-11.916h18.779v11.874l-4.253 3.621-4.589-3.916c-0.168-0.126-0.337-0.211-0.505-0.211-0.253 0.042-0.463 0.126-0.589 0.253zM29.347 30.695h-26.695l13.347-11.368 13.347 11.368zM9.642 22.611l-8.379 7.158v-14.274l8.379 7.116z"></path>
<path fill="#ab0032" d="M20.379 8.758h-8.758c-0.632 0-1.137 0.505-1.137 1.137s0.505 1.137 1.137 1.137h8.716c0.632 0 1.137-0.505 1.137-1.137s-0.505-1.137-1.095-1.137z"></path>
<path fill="#ab0032" d="M22.779 12.968h-13.558c-0.632 0-1.137 0.505-1.137 1.137s0.505 1.137 1.137 1.137h13.558c0.632 0 1.137-0.505 1.137-1.137s-0.505-1.137-1.137-1.137z"></path>
</svg>
