<!-- Generated by IcoMoon.io -->
<svg version="1.1" xmlns="http://www.w3.org/2000/svg" width="32" height="32" viewBox="0 0 32 32">
<title>instagram</title>
<path d="M16.399 32c2.885-0.004 4.943-0.052 6.173-0.143 2.905-0.095 5.155-0.94 6.75-2.536s2.464-3.845 2.607-6.75c0.048-1.286 0.071-3.476 0.071-6.571s-0.024-5.286-0.071-6.571c-0.143-2.905-1.012-5.155-2.607-6.75s-3.845-2.464-6.75-2.607c-1.286-0.048-3.476-0.071-6.571-0.071s-5.286 0.024-6.571 0.071c-2.905 0.143-5.143 1.024-6.714 2.643-1.571 1.571-2.429 3.786-2.571 6.643-0.095 1.333-0.143 3.548-0.143 6.643v0.399c0.004 2.885 0.052 4.943 0.143 6.173 0 0.952 0.083 1.786 0.25 2.5s0.44 1.452 0.821 2.214c0.381 0.762 0.881 1.429 1.5 2 1.571 1.571 3.81 2.429 6.714 2.571 1.286 0.095 3.476 0.143 6.571 0.143h0.399zM19.786 29.143h-7.607c-0.5 0-1.167-0.024-2-0.071s-1.548-0.119-2.143-0.214c-0.595-0.095-1.083-0.214-1.464-0.357-1.429-0.571-2.452-1.595-3.071-3.071-0.095-0.333-0.19-0.762-0.286-1.286s-0.167-1.036-0.214-1.536c-0.048-0.5-0.083-1.107-0.107-1.821s-0.036-1.298-0.036-1.75v-6.857c0-0.5 0.024-1.167 0.071-2s0.119-1.548 0.214-2.143c0.095-0.595 0.214-1.083 0.357-1.464 0.571-1.476 1.595-2.5 3.071-3.071 0.381-0.143 0.869-0.262 1.464-0.357s1.31-0.167 2.143-0.214c0.833-0.048 1.512-0.071 2.036-0.071v0h7.607c0.5 0 1.167 0.024 2 0.071s1.548 0.119 2.143 0.214c0.595 0.095 1.083 0.214 1.464 0.357 1.476 0.571 2.5 1.595 3.071 3.071 0.143 0.381 0.262 0.869 0.357 1.464s0.167 1.31 0.214 2.143c0.048 0.833 0.071 1.512 0.071 2.036v0 7.571c0 0.524-0.024 1.202-0.071 2.036s-0.119 1.548-0.214 2.143c-0.095 0.595-0.214 1.083-0.357 1.464-0.571 1.429-1.595 2.452-3.071 3.071-0.381 0.143-0.869 0.262-1.464 0.357s-1.31 0.167-2.143 0.214c-0.833 0.048-1.512 0.071-2.036 0.071v0zM24.571 9.357c0.524 0 0.964-0.19 1.321-0.571s0.536-0.833 0.536-1.357c0-0.524-0.19-0.952-0.571-1.286-0.333-0.381-0.762-0.571-1.286-0.571s-0.976 0.179-1.357 0.536c-0.381 0.357-0.571 0.798-0.571 1.321s0.19 0.976 0.571 1.357c0.381 0.381 0.833 0.571 1.357 0.571zM16 24.214c2.286 0 4.226-0.798 5.821-2.393s2.393-3.536 2.393-5.821c0-2.286-0.798-4.226-2.393-5.821s-3.536-2.393-5.821-2.393c-2.286 0-4.238 0.81-5.857 2.429-1.571 1.571-2.357 3.5-2.357 5.786s0.798 4.226 2.393 5.821c1.595 1.595 3.536 2.393 5.821 2.393zM16 21.357c-1.476 0-2.738-0.524-3.786-1.571s-1.571-2.31-1.571-3.786c0-1.476 0.524-2.738 1.571-3.786s2.31-1.571 3.786-1.571c1.476 0 2.738 0.524 3.786 1.571s1.571 2.31 1.571 3.786c0 1.476-0.524 2.738-1.571 3.786s-2.31 1.571-3.786 1.571z"></path>
</svg>
