<!-- Generated by IcoMoon.io -->
<svg version="1.1" xmlns="http://www.w3.org/2000/svg" width="31" height="32" viewBox="0 0 31 32">
<title>linkedin</title>
<path d="M0 31.448h6.51v-22.179h-6.51z"></path>
<path d="M22.4 9.269c-4.524 0-5.297 1.655-5.628 3.2v-3.2h-6.51v22.179h6.51v-12.69c0-2.097 1.103-3.2 3.2-3.2s3.31 1.103 3.31 3.2v12.69h6.51v-11.034c0-6.4-0.883-11.145-7.393-11.145z"></path>
<path d="M3.31 1.103c1.828 0 3.31 1.432 3.31 3.2 0 1.767-1.482 3.2-3.31 3.2s-3.31-1.433-3.31-3.2c0-1.768 1.482-3.2 3.31-3.2z"></path>
</svg>
