<!-- Generated by IcoMoon.io -->
<svg version="1.1" xmlns="http://www.w3.org/2000/svg" width="165" height="32" viewBox="0 0 165 32">
<title>logo-signature</title>
<path fill="#fff" d="M58.039 16.786l-3.941-2.768-0.973-2.818-3.517-3.367-3.866 7.433-1.322-3.018-1.422 0.474 0.599-3.367 1.197 0.399 5.088-6.186 3.442 4.564 1.846 1.322 0.723 2.295 1.422 0.948z"></path>
<path fill="#fff" d="M61.306 11.323l3.617 4.315 1.621-0.998 0.998 0.349-1.122 4.988-3.617-2.993-0.175-1.122-1.322-1.147-0.723 0.823z"></path>
<path fill="#fff" d="M39.882 16.037l-2.17 3.816-0.898-2.195-1.621-0.948-1.646 3.143-0.873-3.966 2.818-1.521h1.821l1.97-1.945z"></path>
<path fill="#fff" d="M73.104 17.085l3.018-3.118 4.913 5.288c0 0 0.1 5.412 4.963 5.412 4.614 0 4.889-4.639 4.889-4.639l2.394 0.574 2.469 2.619 2.943-1.571c0 0-0.399 2.644-1.945 4.639l-4.764-2.669-1.322 0.474-1.172 2.719-5.786-1.796-1.322 0.898-3.367-5.786-1.372 1.546-2.17-3.941-2.245 2.968c-0.175-0.973-0.125-3.617-0.125-3.617z"></path>
<path fill="#fff" d="M2.793 22.098l4.465 0.624 3.916-1.771c0 0 0.973 1.322 2.045 1.995l-2.245 2.818-2.594-0.923-2.32 0.050-0.624 0.973c0 0-1.696-1.596-2.644-3.766z"></path>
<path fill="#b10836" d="M26.388 7.956l0.624-6.36c-2.818-0.848-5.712-1.521-8.705-1.521-9.702 0-16.885 5.088-16.885 15.339 0 2.619 0.499 4.814 1.347 6.684l4.465 0.624 3.916-1.771c-1.048-1.472-1.646-3.342-1.646-5.562 0-5.487 3.617-9.528 9.203-9.528 2.719 0.025 5.163 0.698 7.682 2.095zM32.673 15.888l2.818-1.521h1.821l1.97-1.945-1.97-11.847h-8.006l3.367 15.314zM57.316 12.695l-2.22-12.122h-9.952l-1.546 8.779 1.222 0.399 5.063-6.186 3.442 4.564 1.846 1.322 0.723 2.295 1.422 0.948zM64.923 15.638l1.621-0.973 0.998 0.349 3.217-14.416h-7.632l-1.821 10.75 3.617 4.29zM81.035 19.28c-0.050-0.574-0.075-1.147-0.075-1.746v-16.96h-7.832v16.511l2.993-3.118 4.913 5.313zM98.669 21.674c0.15-0.873 0.249-1.821 0.249-2.843v-18.257h-7.832v16.96c0 0.873-0.050 1.746-0.175 2.519l2.394 0.574 2.469 2.619 2.893-1.571z"></path>
<path fill="#000" d="M0.449 28.733h-0.449v-0.175h1.097v0.175h-0.449v1.247h-0.2v-1.247z"></path>
<path fill="#000" d="M1.297 28.558h0.349l0.449 1.197 0.449-1.197h0.349v1.422h-0.2v-1.247l-0.474 1.247h-0.249l-0.474-1.247v1.247h-0.2v-1.422z"></path>
<path fill="#b10836" d="M91.959 23.645l-1.322 0.474-1.172 2.719-5.786-1.796-1.322 0.898-3.367-5.786-1.372 1.546-2.17-3.941-2.245 2.968c0.798 6.709 5.761 9.752 12.82 9.752 4.115 0 8.256-0.998 10.7-4.19l-4.764-2.644z"></path>
<path fill="#b10836" d="M13.219 22.946c1.646 1.122 3.716 1.696 6.111 1.696 2.569 0 5.188-0.673 7.333-1.521l0.374 6.161c-2.245 0.549-4.714 1.172-8.73 1.172-4.564 0-9.503-1.322-12.87-4.614l0.624-0.973 2.32-0.050 2.594 0.923 2.245-2.793z"></path>
<path fill="#b10836" d="M61.306 14.716l1.322 1.147 0.175 1.122 3.617 2.993-2.245 9.977h-10.076l-4.165-17.235h-0.1l-3.866 17.235h-10.176l-2.245-10.101 1.646-3.143 1.621 0.948 0.898 2.195 2.17-3.816 1.197 6.809h0.075l1.846-10.126 1.422-0.474 1.322 3.018 3.866-7.433 3.517 3.367 0.973 2.818 3.941 2.768 1.172 6.061h0.075l1.297-7.308z"></path>
<path fill="#000" d="M105.902 0.075h0.748v30.429h-0.748v-30.429z"></path>
<path fill="#000" d="M117.4 1.671c-0.424-0.249-0.898-0.374-1.397-0.374-1.546 0-2.569 1.122-2.569 2.619 0 1.571 1.147 2.619 2.544 2.619 0.474 0 1.122-0.125 1.472-0.324l0.050 0.923c-0.499 0.2-1.147 0.249-1.521 0.249-2.12 0-3.542-1.372-3.542-3.517 0-2.070 1.496-3.442 3.542-3.442 0.524 0 1.023 0.075 1.521 0.299l-0.1 0.948z"></path>
<path fill="#000" d="M122.388 7.083c-0.349 0.125-0.748 0.324-1.546 0.324-1.746 0-2.544-1.048-2.544-2.669 0-1.447 0.923-2.494 2.295-2.494 1.646 0 2.17 1.197 2.17 2.768h-3.492c0 0.973 0.748 1.646 1.621 1.646 0.599 0 1.297-0.299 1.521-0.499v0.923zM121.79 4.365c0-0.748-0.449-1.372-1.222-1.372-0.898 0-1.247 0.723-1.322 1.372h2.544z"></path>
<path fill="#000" d="M123.959 2.369h0.873v0.773h0.025c0.274-0.549 0.923-0.898 1.596-0.898 1.272 0 1.846 0.798 1.846 2.12v2.918h-0.898v-2.544c0-1.147-0.249-1.696-1.048-1.746-1.023 0-1.496 0.823-1.496 2.020v2.27h-0.898v-4.913z"></path>
<path fill="#000" d="M132.315 3.093h-1.297v2.694c0 0.574 0.349 0.873 0.773 0.873 0.274 0 0.474-0.075 0.624-0.175v0.773c-0.2 0.050-0.474 0.125-0.773 0.125-0.923 0-1.521-0.449-1.521-1.422v-2.868h-1.097v-0.723h1.097v-1.147l0.898-0.299v1.422h1.297v0.748z"></path>
<path fill="#000" d="M133.462 2.369h0.848v0.773h0.025c0.249-0.499 0.748-0.873 1.272-0.873 0.274 0 0.399 0.025 0.599 0.075v0.798c-0.175-0.075-0.349-0.075-0.499-0.075-0.798 0-1.347 0.773-1.347 1.995v2.245h-0.898v-4.938z"></path>
<path fill="#000" d="M137.104 2.719c0.449-0.274 0.998-0.474 1.621-0.474 1.397 0 1.97 0.698 1.97 2.020v2.020c0 0.549 0.025 0.823 0.050 0.973h-0.848v-0.624h-0.025c-0.2 0.299-0.698 0.748-1.521 0.748-1.048 0-1.796-0.474-1.796-1.521 0-1.222 1.347-1.621 2.295-1.621 0.349 0 0.599 0 0.973 0.025 0-0.848-0.299-1.272-1.222-1.272-0.499 0-1.048 0.2-1.422 0.499l-0.075-0.773zM139.772 4.938c-0.2 0-0.374-0.025-0.574-0.025-0.499 0-1.696 0.075-1.696 0.948 0 0.524 0.499 0.798 0.923 0.798 0.898 0 1.372-0.549 1.372-1.297v-0.424z"></path>
<path fill="#000" d="M142.042 0.050h0.898v7.208h-0.898v-7.208z"></path>
<path fill="#000" d="M112.337 11.822h1.048l1.596 5.762h0.025l1.447-5.761h1.372l1.447 5.761h0.025l1.596-5.761h1.023l-2.070 6.709h-1.247l-1.472-5.861h-0.025l-1.472 5.861h-1.297l-1.995-6.709z"></path>
<path fill="#000" d="M122.513 13.992c0.449-0.274 0.998-0.474 1.621-0.474 1.397 0 1.97 0.698 1.97 2.020v2.020c0 0.549 0.025 0.823 0.050 0.973h-0.848v-0.624h-0.025c-0.224 0.299-0.698 0.748-1.521 0.748-1.048 0-1.796-0.474-1.796-1.521 0-1.222 1.347-1.621 2.27-1.621 0.349 0 0.599 0 0.973 0.025 0-0.848-0.299-1.272-1.222-1.272-0.499 0-1.048 0.2-1.422 0.499l-0.050-0.773zM125.207 16.212c-0.2 0-0.374-0.025-0.574-0.025-0.499 0-1.696 0.075-1.696 0.948 0 0.524 0.499 0.798 0.923 0.798 0.898 0 1.372-0.549 1.372-1.297v-0.424z"></path>
<path fill="#000" d="M127.277 17.584c0.349 0.224 0.873 0.349 1.122 0.349 0.424 0 0.923-0.175 0.923-0.698 0-0.898-2.12-0.823-2.12-2.195 0-1.023 0.773-1.521 1.721-1.521 0.424 0 0.773 0.075 1.122 0.2l-0.075 0.798c-0.2-0.125-0.748-0.249-0.948-0.249-0.474 0-0.873 0.2-0.873 0.599 0 0.998 2.12 0.723 2.12 2.295 0 1.048-0.848 1.521-1.721 1.521-0.474 0-0.923-0.050-1.347-0.274l0.075-0.823z"></path>
<path fill="#000" d="M131.242 11.323h0.898v3.018h0.025c0.324-0.524 0.898-0.823 1.571-0.823 1.272 0 1.846 0.798 1.846 2.12v2.918h-0.898v-2.544c0-1.147-0.249-1.696-1.048-1.746-1.023 0-1.496 0.823-1.496 2.020v2.27h-0.898v-7.233z"></path>
<path fill="#000" d="M138.076 12.546h-1.023v-1.023h1.023v1.023zM137.104 13.643h0.898v4.913h-0.898v-4.913z"></path>
<path fill="#000" d="M139.573 13.643h0.873v0.773h0.025c0.274-0.549 0.923-0.898 1.596-0.898 1.272 0 1.846 0.798 1.846 2.12v2.918h-0.898v-2.544c0-1.147-0.249-1.696-1.048-1.746-1.023 0-1.496 0.823-1.496 2.020v2.27h-0.898v-4.913z"></path>
<path fill="#000" d="M149.699 18.332c0 1.497-0.773 2.345-2.519 2.345-0.524 0-0.973-0.075-1.771-0.349l0.1-0.848c0.698 0.324 1.097 0.449 1.771 0.449 0.948 0 1.521-0.648 1.521-1.696v-0.474h-0.025c-0.374 0.499-1.023 0.748-1.646 0.748-1.397 0-2.095-1.147-2.095-2.419s0.723-2.619 2.195-2.619c0.873 0 1.347 0.324 1.621 0.848h0.025v-0.723h0.848v4.739zM148.801 16.137c0-1.023-0.474-1.896-1.447-1.896-0.923 0-1.372 0.998-1.372 1.821 0 0.923 0.524 1.721 1.372 1.721s1.447-0.723 1.447-1.646z"></path>
<path fill="#000" d="M153.815 14.366h-1.297v2.694c0 0.574 0.349 0.873 0.748 0.873 0.274 0 0.474-0.075 0.624-0.175v0.773c-0.2 0.050-0.474 0.125-0.773 0.125-0.923 0-1.521-0.449-1.521-1.422v-2.868h-1.097v-0.723h1.097v-1.147l0.898-0.299v1.422h1.297v0.748z"></path>
<path fill="#000" d="M156.982 13.518c1.496 0 2.494 1.072 2.494 2.569 0 1.397-1.023 2.569-2.494 2.569s-2.494-1.172-2.494-2.569c0-1.496 0.998-2.569 2.494-2.569zM156.982 17.933c1.048 0 1.521-0.973 1.521-1.846 0-0.923-0.574-1.846-1.521-1.846-0.973 0-1.546 0.898-1.546 1.846 0 0.873 0.474 1.846 1.546 1.846z"></path>
<path fill="#000" d="M160.648 13.643h0.873v0.773h0.025c0.274-0.549 0.923-0.898 1.596-0.898 1.272 0 1.846 0.798 1.846 2.12v2.918h-0.898v-2.544c0-1.147-0.249-1.696-1.048-1.746-1.023 0-1.496 0.823-1.496 2.020v2.27h-0.898v-4.913z"></path>
<path fill="#000" d="M117.998 27.037c0 1.896-0.948 2.893-2.619 2.893-1.646 0-2.619-1.023-2.619-2.893v-3.941h0.973v3.816c0 1.297 0.399 2.17 1.646 2.17s1.646-0.898 1.646-2.17v-3.816h0.973v3.941z"></path>
<path fill="#000" d="M119.645 24.892h0.873v0.773h0.025c0.274-0.549 0.923-0.898 1.596-0.898 1.272 0 1.846 0.798 1.846 2.12v2.918h-0.898v-2.544c0-1.147-0.249-1.696-1.048-1.746-1.023 0-1.496 0.823-1.496 2.020v2.27h-0.898v-4.913z"></path>
<path fill="#000" d="M126.404 23.794h-1.023v-1.023h1.023v1.023zM125.431 24.892h0.898v4.913h-0.898v-4.913z"></path>
<path fill="#000" d="M130.095 29.805h-1.072l-1.771-4.913h0.998l1.322 4.016h0.025l1.347-4.016h0.898l-1.746 4.913z"></path>
<path fill="#000" d="M136.355 29.606c-0.349 0.125-0.748 0.324-1.546 0.324-1.746 0-2.544-1.048-2.544-2.669 0-1.447 0.923-2.494 2.295-2.494 1.646 0 2.17 1.197 2.17 2.768h-3.492c0 0.973 0.748 1.646 1.621 1.646 0.599 0 1.297-0.299 1.521-0.499v0.923zM135.757 26.887c0-0.748-0.449-1.372-1.222-1.372-0.898 0-1.247 0.723-1.322 1.372h2.544z"></path>
<path fill="#000" d="M137.927 24.892h0.848v0.748h0.025c0.249-0.499 0.748-0.873 1.272-0.873 0.274 0 0.399 0.025 0.599 0.075v0.798c-0.175-0.075-0.349-0.075-0.499-0.075-0.798 0-1.347 0.773-1.347 1.995v2.245h-0.898v-4.913z"></path>
<path fill="#000" d="M141.269 28.857c0.349 0.224 0.873 0.349 1.122 0.349 0.424 0 0.923-0.175 0.923-0.698 0-0.898-2.12-0.823-2.12-2.195 0-1.023 0.748-1.521 1.721-1.521 0.424 0 0.773 0.075 1.122 0.2l-0.075 0.798c-0.2-0.125-0.748-0.249-0.948-0.249-0.474 0-0.873 0.2-0.873 0.599 0 0.998 2.12 0.723 2.12 2.295 0 1.048-0.848 1.521-1.721 1.521-0.474 0-0.923-0.050-1.347-0.274l0.075-0.823z"></path>
<path fill="#000" d="M146.307 23.794h-1.023v-1.023h1.023v1.023zM145.359 24.892h0.898v4.913h-0.898v-4.913z"></path>
<path fill="#000" d="M150.422 25.64h-1.297v2.694c0 0.574 0.349 0.873 0.773 0.873 0.274 0 0.474-0.075 0.624-0.175v0.773c-0.2 0.050-0.474 0.125-0.773 0.125-0.923 0-1.521-0.449-1.521-1.422v-2.868h-1.097v-0.723h1.097v-1.147l0.898-0.299v1.422h1.297v0.748z"></path>
<path fill="#000" d="M151.246 31.127c0.125 0.050 0.274 0.075 0.424 0.075 0.798 0 1.072-1.122 1.072-1.222s-0.125-0.349-0.175-0.524l-1.671-4.589h0.998l1.322 4.065h0.025l1.347-4.065h0.923l-1.821 5.013c-0.349 0.948-0.698 2.020-1.896 2.020-0.299 0-0.449-0.050-0.624-0.075l0.075-0.698z"></path>
</svg>
