<!-- Generated by IcoMoon.io -->
<svg version="1.1" xmlns="http://www.w3.org/2000/svg" width="104" height="32" viewBox="0 0 104 32">
<title>logo</title>
<path fill="#fff" d="M61.062 17.574l-4.17-2.885-1.023-2.964-3.698-3.541-4.066 7.79-1.39-3.174-1.495 0.498 0.63-3.515 1.285 0.393 5.325-6.505 3.62 4.8 1.941 1.39 0.761 2.413 1.495 1.023z"></path>
<path fill="#fff" d="M64.472 11.829l3.803 4.538 1.705-1.023 1.049 0.367-1.18 5.22-3.803-3.148-0.184-1.154-1.39-1.233-0.761 0.866z"></path>
<path fill="#fff" d="M41.941 16.813l-2.282 4.013-0.944-2.334-1.705-0.971-1.705 3.305-0.944-4.197 2.964-1.6h1.915l2.072-2.046z"></path>
<path fill="#fff" d="M76.879 17.889l3.174-3.279 5.167 5.587c0 0 0.105 5.718 5.22 5.692 4.852 0 5.141-4.879 5.141-4.879l2.518 0.603 2.597 2.754 3.095-1.652c0 0-0.42 2.78-2.046 4.879l-5.010-2.807-1.39 0.498-1.233 2.859-6.085-1.889-1.39 0.944-3.541-6.085-1.443 1.626-2.282-4.144-2.361 3.121c-0.184-1.049-0.131-3.829-0.131-3.829z"></path>
<path fill="#fff" d="M2.938 23.161l4.695 0.656 4.118-1.862c0 0 1.023 1.39 2.151 2.098l-2.361 2.964-2.728-0.971-2.439 0.052-0.656 1.023c0 0-1.784-1.652-2.78-3.961z"></path>
<path fill="#b10836" d="M27.751 8.289l0.656-6.689c-2.964-0.892-6.007-1.6-9.154-1.6-10.203 0-17.757 5.377-17.757 16.131 0 2.754 0.525 5.062 1.416 7.029l4.695 0.656 4.118-1.862c-1.102-1.548-1.731-3.515-1.731-5.849 0-5.771 3.803-10.020 9.679-10.020 2.859 0.026 5.43 0.734 8.079 2.203zM34.361 16.63l2.964-1.6h1.915l2.072-2.046-2.098-12.459h-8.42l3.567 16.105zM60.275 13.298l-2.334-12.774h-10.466l-1.626 9.233 1.285 0.42 5.325-6.505 3.62 4.8 1.941 1.39 0.761 2.413 1.495 1.023zM68.275 16.367l1.705-1.023 1.049 0.367 3.41-15.187h-8.026l-1.915 11.305 3.777 4.538zM85.22 20.197c-0.052-0.603-0.079-1.207-0.079-1.836v-17.836h-8.236v17.364l3.174-3.279 5.141 5.587zM103.764 22.715c0.157-0.918 0.262-1.915 0.262-2.99v-19.2h-8.236v17.836c0 0.918-0.052 1.836-0.184 2.649l2.518 0.603 2.597 2.754 3.043-1.652z"></path>
<path fill="#000" d="M0.472 30.138h-0.472v-0.184h1.154v0.184h-0.472v1.311h-0.21v-1.311z"></path>
<path fill="#000" d="M1.364 29.954h0.367l0.472 1.259 0.472-1.259h0.367v1.495h-0.21v-1.311l-0.498 1.311h-0.262l-0.498-1.285v1.311h-0.21v-1.521z"></path>
<path fill="#b10836" d="M96.708 24.787l-1.39 0.498-1.233 2.859-6.085-1.889-1.39 0.944-3.541-6.085-1.443 1.626-2.282-4.144-2.361 3.121c0.839 7.056 6.059 10.256 13.482 10.256 4.328 0 8.682-1.049 11.252-4.407l-5.010-2.78z"></path>
<path fill="#b10836" d="M13.902 24.079c1.731 1.18 3.908 1.784 6.426 1.784 2.702 0 5.456-0.708 7.711-1.6l0.393 6.479c-2.361 0.577-5.928 1.233-10.125 1.233-4.8 0-9.023-1.39-12.564-4.852l0.656-1.023 2.439-0.052 2.702 0.971 2.361-2.938z"></path>
<path fill="#b10836" d="M64.472 15.397l1.39 1.233 0.184 1.154 3.803 3.148-2.361 10.518h-10.597l-4.38-18.125h-0.105l-4.066 18.125h-10.702l-2.334-10.623 1.705-3.305 1.705 0.971 0.944 2.334 2.282-4.013 1.259 7.134h0.079l1.941-10.649 1.495-0.498 1.39 3.174 4.066-7.79 3.698 3.541 1.023 2.964 4.17 2.885 1.207 6.374h0.079l1.364-7.685z"></path>
</svg>
