<!-- Generated by IcoMoon.io -->
<svg version="1.1" xmlns="http://www.w3.org/2000/svg" width="32" height="32" viewBox="0 0 32 32">
<title>peak</title>
<path fill="#fefefe" d="M2.733 21.667c0.533-0.467 2.133-1.867 2.467-2.067 0.4-0.267 1.133 0.667 1.467 0.467 1.2-0.867 3.067-3.267 3.333-3.467 0.733-0.4 1.733-0.533 1.8-0.533s3.667-3.933 4.333-3.8c0.6 0.267 2.733 3.133 2.8 3.067 0.067 0 0.667 0.8 0.933 1.067s0.867 1.4 1 1.533c0.067 0.133 1.267 0.867 1.8 1.267 0.333 0.267 0.333 0.467 0.4 0.533 0.467 0.067 0.667-0.333 0.8-0.533 0.067-0.133 0.8-1.267 1.067-1.133 0.4 0.133 1.6 1.667 1.6 1.667l0.667 0.4c0 0 0.333 0.333 0.533 0.533 0.2 0.133 0.733 0 0.867-0.067 0.333-0.133 1.2 0 1.733-0.333v0c0.067-0.333 0.133-0.6 0.267-0.933-0.133-0.067-0.2-0.067-0.267 0-0.533 0.4-1.4 0.2-1.733 0.333-0.133 0.067-0.667 0.2-0.867 0.067s-0.533-0.533-0.533-0.533l-0.667-0.4c0 0-1.2-1.467-1.6-1.6-0.333-0.133-1 1-1.067 1.133-0.133 0.2-0.333 0.533-0.8 0.533-0.133 0-0.133-0.267-0.4-0.533-0.533-0.4-1.667-1.133-1.733-1.267s-0.667-1.267-1-1.533c-0.333-0.267-0.933-1.067-0.933-1.067-0.067 0-2.2-2.867-2.8-3.067-0.6-0.133-4.267 3.733-4.333 3.8s-1.067 0.2-1.8 0.533c-0.333 0.133-2.2 2.6-3.333 3.467-0.333 0.267-1.067-0.733-1.467-0.467-0.267 0.2-1.933 1.6-2.467 2.067-0.4 0.333-0.667-0.6-0.933-0.533-0.067 0-0.133 0.067-0.2 0.067 0.067 0.333 0.2 0.6 0.267 0.933 0.2 0.067 0.467 0.733 0.8 0.4v0z"></path>
<path fill="#fefefe" d="M27.533 21.933c-0.2-0.133-0.533-0.467-0.533-0.467l-0.667-0.6c0 0-0.933-1.2-1.333-1.4-0.333-0.133-1 1-1.067 1.133-0.133 0.2-0.333 0.733-0.8 0.667-0.133 0-0.067-0.267-0.4-0.467-0.533-0.4-2.333-1.6-2.4-1.8s-0.467-1.2-0.8-1.467c-0.333-0.267-0.533-0.6-0.8-0.733-0.067 0-2.067-3.2-2.533-3.467-0.4-0.267-4.133 4.2-4.2 4.2-0.067 0.067-1.067 0.2-1.8 0.533-0.333 0.133-2.333 2.533-3.467 3.333-0.333 0.2-1-0.733-1.4-0.467-0.267 0.2-2.067 1.533-2.6 2 0 0 0 0 0 0 0.333 0.6 0.667 1.2 1.067 1.733 0.067 0 0.067-0.067 0.067-0.067 0.2-0.133 1.133-2 1.333-2.133 0.467-0.267 1.2 0 1.267 0 0.267 0.067 0 1.533 0.333 1.533 0.467 0 1.533-1.867 1.733-1.867 0.733 0 2.2-3.467 2.667-3.467 0.933 0.067 0.733-0.067 1.067 0.067 0.267 0.133 0.333 1.8 0.6 1.8 0.667 0 1.333-2.333 1.667-2.667 0.267-0.267 1.8-3.333 1.933-3.333s1.6 2.133 1.8 2.4c0.067 0.133 0.667 0.933 0.733 1 0.133 0.133 0.467 0.133 0.6 0.333 0 0 0.2 0.533 0.333 0.667 0.4 0.467 0.6 0.667 0.6 0.667s0.467 0.6 0.533 1.4c0 0 0 0 0 0s0 0 0 0 0 0 0 0.067c0 0.133 0.067 0.467 0.267 0.333 0.4-0.133 0.867-0.067 1.133 0.133 0.333 0.133 1 1.133 1.333 1.133 0.133 0 0.6-0.733 0.6-0.733s0.2-0.267 0.2-0.267c0.133-0.067 0.667-0.733 0.8-0.733 0.267 0 0.6 0.733 0.6 0.733 0.133 0.333-0.067 0.667 0.133 1 0.067 0.133 0.6 0.4 0.667 0.4s0.267 0.133 0.8 0.4c0.2 0.067 0.867 0.467 1 0.6 0.533-0.8 1-1.733 1.4-2.667-0.533 0.067-1.133 0-1.333 0.133-0.2 0.2-1 0.533-1.133 0.4v0z"></path>
<path fill="#000" d="M30.4 20.2c-0.533 0.4-1.4 0.2-1.733 0.333-0.133 0.067-0.667 0.2-0.867 0.067s-0.533-0.533-0.533-0.533l-0.667-0.4c0 0-1.2-1.467-1.6-1.667-0.333-0.133-1 1-1.067 1.133-0.133 0.2-0.333 0.533-0.8 0.533-0.133 0-0.133-0.267-0.4-0.533-0.533-0.4-1.667-1.133-1.733-1.267s-0.667-1.267-1-1.533c-0.333-0.267-0.933-1.067-0.933-1.067-0.067 0-2.2-2.867-2.8-3.067-0.6-0.133-4.267 3.733-4.333 3.8s-1.067 0.2-1.8 0.533c-0.333 0.133-2.2 2.6-3.333 3.467-0.333 0.267-1.067-0.733-1.467-0.467-0.267 0.2-1.933 1.6-2.467 2.067-0.467 0.4-0.733-0.267-0.933-0.467 0 0 0 0 0 0 0.2 0.6 0.467 1.133 0.733 1.733 0 0.067 0.067 0.067 0.067 0.133 0 0 0 0 0 0 0.533-0.467 2.333-1.8 2.6-2 0.4-0.267 1.067 0.667 1.4 0.467 1.133-0.867 3.2-3.2 3.467-3.333 0.733-0.333 1.667-0.533 1.8-0.533s3.8-4.467 4.2-4.2c0.467 0.333 2.467 3.467 2.533 3.533 0.267 0.133 0.533 0.467 0.8 0.733 0.333 0.267 0.733 1.333 0.8 1.467s1.867 1.4 2.4 1.8c0.333 0.267 0.333 0.467 0.4 0.467 0.467 0.067 0.667-0.533 0.8-0.667 0.067-0.133 0.733-1.267 1.067-1.133 0.4 0.133 1.333 1.4 1.333 1.4l0.667 0.6c0 0 0.333 0.333 0.533 0.467s0.933-0.2 1.067-0.267c0.2-0.133 0.867-0.067 1.333-0.133 0-0.067 0.067-0.133 0.067-0.133 0.2-0.533 0.267-0.933 0.4-1.333 0 0 0 0 0 0v0 0z"></path>
<path fill="#000" d="M27.533 23.533c-0.533-0.267-0.733-0.4-0.8-0.4s-0.533-0.267-0.667-0.4c-0.2-0.267-0.067-0.6-0.133-1 0 0-0.333-0.733-0.6-0.733-0.133 0-0.667 0.667-0.8 0.733 0 0-0.2 0.267-0.2 0.267s-0.467 0.733-0.6 0.733c-0.333 0-1.067-1-1.333-1.133-0.333-0.133-0.8-0.267-1.2-0.133-0.267 0.133-0.267-0.2-0.267-0.333 0 0 0-0.067 0-0.067s0 0 0 0c-0.067-0.867-0.533-1.4-0.533-1.4s-0.2-0.133-0.6-0.667c-0.133-0.133-0.333-0.667-0.333-0.667-0.133-0.2-0.4-0.2-0.6-0.333-0.067-0.067-0.667-0.933-0.733-1-0.133-0.267-1.667-2.4-1.8-2.4s-1.667 3.067-1.933 3.333c-0.267 0.267-1 2.6-1.667 2.667-0.2 0-0.333-1.667-0.6-1.8-0.333-0.133-0.133 0-1.067-0.067-0.467 0-1.867 3.467-2.6 3.467-0.2 0-1.267 1.867-1.733 1.867-0.333 0-0.067-1.533-0.333-1.533-0.067 0-0.733-0.267-1.2 0-0.2 0.133-1.133 2-1.333 2.133 0 0-0.067 0-0.067 0.067 0 0 0 0 0 0 1.8 2.533 4.4 4.467 7.4 5.467 1.467 0.533 3.067 0.8 4.733 0.8s3.267-0.267 4.733-0.8c3.2-1.067 6-3.2 7.8-6 0 0 0 0 0 0-0.067-0.133-0.733-0.533-0.933-0.667v0z"></path>
</svg>
