<!-- Generated by IcoMoon.io -->
<svg version="1.1" xmlns="http://www.w3.org/2000/svg" width="33" height="32" viewBox="0 0 33 32">
<title>quote</title>
<path d="M0 32c0-1.939 0-3.899 0-5.879s0-3.939 0-5.879c0-6.222 0.918-11.111 2.754-14.667s5.048-5.414 9.638-5.576l2.378 4.727c-2.587 0.242-4.36 1.434-5.319 3.576s-1.439 5.515-1.439 10.121h6.634v13.576h-14.644zM18.462 32c0-1.939 0-3.899 0-5.879s0-3.939 0-5.879c0-6.222 0.918-11.111 2.754-14.667s5.048-5.414 9.638-5.576l2.378 4.727c-2.587 0.242-4.36 1.434-5.319 3.576s-1.439 5.515-1.439 10.121h6.634v13.576h-14.644z"></path>
</svg>
