<!-- Generated by IcoMoon.io -->
<svg version="1.1" xmlns="http://www.w3.org/2000/svg" width="32" height="32" viewBox="0 0 32 32">
<title>search</title>
<path d="M19.651 19.682c-3.531 3.53-9.276 3.538-12.809 0.008-3.539-3.533-3.547-9.291-0.020-12.835 1.768-1.776 4.094-2.664 6.42-2.664 2.318 0 4.632 0.882 6.401 2.645v0c3.534 3.53 3.547 9.283 0.008 12.846v0zM23.982 21.031c3.807-5.256 3.255-12.525-1.386-17.16-2.502-2.497-5.823-3.87-9.354-3.87h-0.020c-3.539 0.006-6.864 1.388-9.362 3.898-5.157 5.177-5.146 13.594 0.028 18.758 4.644 4.638 11.903 5.166 17.141 1.34l8.018 8.003 2.953-2.966-8.018-8.004z"></path>
</svg>
