<!-- Generated by IcoMoon.io -->
<svg version="1.1" xmlns="http://www.w3.org/2000/svg" width="22" height="32" viewBox="0 0 22 32">
<title>tooltip</title>
<path d="M6.097 19.819v-1.763c0-1.339 0.276-2.47 0.827-3.392s1.529-1.821 2.935-2.695c1.116-0.697 1.919-1.325 2.408-1.886s0.734-1.202 0.734-1.927c0-0.574-0.262-1.028-0.785-1.363s-1.206-0.502-2.046-0.502c-2.080 0-4.512 0.731-7.295 2.193l-2.873-5.575c3.431-1.94 7.013-2.91 10.746-2.91 3.072 0 5.483 0.669 7.233 2.009s2.625 3.163 2.625 5.472c0 1.653-0.389 3.085-1.168 4.294s-2.022 2.354-3.73 3.433c-1.447 0.929-2.353 1.609-2.718 2.039s-0.548 0.939-0.548 1.527v1.045h-6.345zM5.208 26.992c0-1.257 0.369-2.227 1.106-2.91s1.822-1.025 3.255-1.025c1.378 0 2.435 0.345 3.172 1.035s1.106 1.657 1.106 2.9c0 1.243-0.382 2.207-1.147 2.89s-1.808 1.025-3.131 1.025c-1.364 0-2.432-0.338-3.203-1.014s-1.157-1.643-1.157-2.9z"></path>
</svg>
