<!-- Generated by IcoMoon.io -->
<svg version="1.1" xmlns="http://www.w3.org/2000/svg" width="40" height="32" viewBox="0 0 40 32">
<title>twitter</title>
<path d="M12.578 32c3.646 0 6.979-0.692 10-2.077s5.482-3.192 7.383-5.423c1.901-2.231 3.372-4.692 4.414-7.385s1.563-5.397 1.563-8.115c0-0.462-0.026-0.795-0.078-1 1.615-1.179 2.995-2.59 4.141-4.231-1.563 0.667-3.125 1.103-4.688 1.308 1.771-1.077 2.969-2.564 3.594-4.462-1.615 0.923-3.359 1.564-5.234 1.923-1.615-1.692-3.62-2.538-6.016-2.538-2.24 0-4.154 0.795-5.742 2.385s-2.383 3.487-2.383 5.692c0 0.615 0.052 1.231 0.156 1.846-3.333-0.154-6.471-0.974-9.414-2.462s-5.43-3.487-7.461-6c-0.781 1.282-1.172 2.641-1.172 4.077 0 2.872 1.224 5.128 3.672 6.769-1.302-0.051-2.526-0.41-3.672-1.077v0 0.154c0 1.282 0.286 2.474 0.859 3.577s1.354 2.038 2.344 2.808c0.99 0.769 2.109 1.282 3.359 1.538-0.729 0.154-1.458 0.231-2.188 0.231-0.469 0-0.964-0.026-1.484-0.077 0.521 1.59 1.471 2.91 2.852 3.962s2.982 1.577 4.805 1.577c-3.021 2.308-6.432 3.462-10.234 3.462-0.729 0-1.38-0.026-1.953-0.077 3.802 2.41 7.995 3.615 12.578 3.615z"></path>
</svg>
