<!-- Generated by IcoMoon.io -->
<svg version="1.1" xmlns="http://www.w3.org/2000/svg" width="45" height="32" viewBox="0 0 45 32">
<title>youtube</title>
<path d="M43.081 5.007c-0.506-1.971-1.997-3.523-3.89-4.050-3.431-0.957-17.191-0.957-17.191-0.957s-13.759 0-17.191 0.957c-1.893 0.527-3.384 2.079-3.89 4.050-0.919 3.572-0.919 11.025-0.919 11.025s0 7.453 0.919 11.025c0.506 1.971 1.997 3.458 3.89 3.985 3.431 0.957 17.191 0.957 17.191 0.957s13.759 0 17.191-0.957c1.893-0.527 3.384-2.014 3.89-3.985 0.919-3.572 0.919-11.025 0.919-11.025s0-7.453-0.919-11.025zM18 22v-12l12 6z"></path>
</svg>
