<svg xmlns="http://www.w3.org/2000/svg" viewBox="0 0 91 91"><circle cx="45.5" cy="45.5" r="45.5" opacity=".71"/><circle cx="45.5" cy="45.5" r="32.4"/><path d="M45.5 78.8c-18.4 0-33.3-15-33.3-33.3s15-33.3 33.3-33.3 33.3 15 33.3 33.3-14.9 33.3-33.3 33.3zm0-64.8C28.1 14 14 28.1 14 45.5S28.1 77 45.5 77 77 62.9 77 45.5 62.9 14 45.5 14z" fill="#cc1540"/><path d="M61.6 34.3c-3.2 2.4-5.5 4.7-6.8 6.9-1.4 2.2-2 4.6-2 7.2.9-.6 1.9-.8 3.1-.8 1.6 0 2.9.5 3.9 1.6s1.5 2.4 1.5 4.1c0 1.9-.6 3.4-1.9 4.5-1.3 1.2-3 1.8-5.2 1.8-4.9 0-7.4-3.2-7.4-9.7 0-1.7.2-3.3.6-4.8.4-1.5 1.1-2.9 2-4.3.9-1.4 2.2-2.9 3.8-4.3 1.6-1.5 3.6-3.1 5.9-4.8l2.5 2.6zm-17.3 0c-3.2 2.4-5.5 4.7-6.8 6.9-1.4 2.2-2 4.6-2 7.2.9-.6 1.9-.8 3.1-.8 1.6 0 2.9.5 3.9 1.6s1.5 2.4 1.5 4.1c0 1.9-.6 3.4-1.9 4.5-1.3 1.2-3 1.8-5.2 1.8-4.9 0-7.4-3.2-7.4-9.7 0-1.7.2-3.3.6-4.8.4-1.5 1.1-2.9 2-4.3.9-1.4 2.2-2.9 3.8-4.3 1.6-1.5 3.6-3.1 5.9-4.8l2.5 2.6z" fill="#fff"/></svg>