<svg width="877" height="581" viewBox="0 0 877 581" xmlns="http://www.w3.org/2000/svg" xmlns:xlink="http://www.w3.org/1999/xlink"><defs><path id="a" d="M0 0h877v581H0z"/><path id="c" d="M0 0h732v483H0z"/></defs><g fill="none" fill-rule="evenodd"><g opacity=".036"><mask id="b" fill="#fff"><use xlink:href="#a"/></mask><path d="M131.396 466.24c-3.448-10.218-12.735-13.775-24.28-9.227-3.095-11.573-11.946-11.83-21.51-10.478-3.436.487-6.845 1.223-10.295 1.533-17.309 1.551-20.799-2.8-18.085-20.025 1.062-6.73-.17-13.845-.536-20.775-.33-6.29-1.873-12.678.766-18.606 1.102-.03 2.205-.063 3.307-.094.936 10.077 2.195 20.136 2.706 30.233.424 8.34 1.053 9.48 7.339 9.325 0-11.698-.374-23.366.24-34.982.173-3.254 3.177-6.401 5.027-9.51 1.8-3.022 3.786-5.933 5.933-9.273-9.074-4.39-19.782 2.676-24.247-6.856-2.35-5.013-.893-11.82-1.18-18.43 7.97.47 12.236-1.815 14.603-8.555.872-2.484 5.836-3.864 9.18-5.04 3.62-1.27 7.53-1.717 11.492-3.594-13.182-1.707-21.088-18.552-35.312-13.55-3.927-13.999-7.543-29.286-12.554-44.1-5.102-15.08-9.156-30.027-9.006-46.208.154-16.58-7.613-30.953-15.283-45.164-5.34-9.891-10.34-19.966-15.53-29.942-5.281-10.158-5.41-20.394-1.164-31.003 4.063-10.154 8.181-20.417 3.59-34.093 16.523 5.87 30.849 11.403 45.455 16.044 23.81 7.568 47.793 14.593 71.733 21.75 5.098 1.525 10.324 2.62 15.483 3.937 8.5 2.168 16.886 5.159 25.518 6.345 12.49 1.714 23.684 5.58 33.853 13.26 4.579 3.458 10.426 5.273 15.782 7.639 14.178 6.264 17.128 14.515 9.758 28.098-1.9 3.501-4.206 6.78-6.483 10.413l-6.725-2.863-2.118 9.685c-3.41.835-7.005.607-8.103 2.157-9.219 13.02-18.246 26.196-26.75 39.694-3.571 5.67-5.742 12.228-9.388 20.216l40.048 7.153c-4.529 13.184-11.67 21.733-27.574 18.139-.179.8-.355 1.601-.534 2.402 2.083 2.575 3.659 6.323 6.347 7.492 6.77 2.944 13.905 5.528 21.144 6.763 8.453 1.438 17.173 1.29 26.565 1.882.112-1.407.401-3.974.505-6.548.291-7.11 4.036-10.675 10.707-13.11 7.279-2.653 13.924-7.052 22.095-11.349-1.101-5.552-2.301-11.473-3.448-17.406-.912-4.722-2.107-9.427-2.552-14.198-.581-6.245.163-12.047 8.762-11.755-10.1-20.974-7.066-37.738 9.455-54.078 6.79-6.717 7.35-10.552 1.073-17.963-5.761-6.801-8.062-14.208-7.409-22.99 1.083-14.568-5.25-25.684-16.008-35.114-5.704-5-10.25-11.332-16.005-17.841 10.578-4.526 12.392 4.276 18.549 9.406 1.161-4.461 3.054-8.02 2.78-11.403-.712-8.77-2.358-17.464-3.67-26.182-.517-3.427-1.757-6.869-1.582-10.247.334-6.46-.39-11.068-8.637-10.513-1.694.112-4.33-2.263-5.253-4.128C234.865 22.296 230.155 11.78 224.691 0H862.55c0 5.051.011 8.994-.002 12.936-.478 137.521-.989 275.042-1.37 412.562-.027 9.64.424 19.342 1.629 28.892.523 4.149 3.398 8.046 5.417 11.949 5.846 11.31 11.076 23.074 7.728 35.967-3.538 13.625-15.413 17.107-27.459 18.225-12.488 1.16-25.11 1.266-37.668 1.208-31.578-.145-63.191.155-94.721-1.265-23.132-1.042-46.157-4.508-69.224-6.944-2.637-.279-5.238-.888-8.554-1.466-7.65 19.34-25.614 15.806-40.883 17.973-7.831 1.11-15.953.039-23.852.852-4.017.414-8.512 1.974-11.603 4.487-7.79 6.334-16.335 7.749-25.619 5.633-10.565-2.405-19.909.344-29.29 5.048-13.107 6.57-26.552 12.463-39.829 18.695-5.293 2.486-9.897 1.892-14.998-1.313-9.78-6.145-20.012-4.334-29.879.25-18.359 8.528-36.376 11.319-56.04 2.533-12.745-5.694-26.938-8.388-40.701-11.432-8.78-1.943-17.492-.383-25.122 5.393-2.692 2.036-6.048 3.778-9.325 4.339-9.7 1.656-17.906 5.206-25.425 12.136-6.368 5.866-16.837 5.371-22.694 1.007-9.327-6.953-19.413-6.979-29.513-8.282-15.961-2.058-18.47-4.571-21.15-20.27-3.013-17.639-6.636-35.188-10.497-52.665-2.573-11.643-12.313-19.42-25.453-20.988-5.291-.632-10.842.301-15.982-.82-6.132-1.337-11.952-4.118-17.907-6.273l1.09-2.964 7.743.838z" fill="#000" mask="url(#b)"/><path d="M205.932 220.582c-1.592-14.789.598-17.6 14.945-22.982 2.598-.974 4.478-5.006 5.844-8.025 1.314-2.907 1.533-6.33 3.17-9.575 4.776 6.456 9.776 13.188 7.573 21.106-2.37 8.52-8.436 14.142-19.485 11.443.379 7.323.69 13.342 1.044 20.154-3.781-.687-7.016-1.276-10.592-1.928-.859 5.698-2.468 12.454 4.026 14.03 4.379 1.06 9.82-2.435 15.912-4.221-.92 16.73-4.646 31.465-13.404 45.018l-1.108-10.251c-8.405-1.754-9.289 7.037-15.444 10.649-2.176-20.09-13.928-25.485-32.413-19.116 5.81-11.857 10.25-22.089 15.717-31.715 4.683-8.243 10.256-10.986 24.215-14.587m12.361-94.209c4.356 2.297 8.643 4.76 13.143 6.718.698.302 2.6-1.508 3.546-2.676 2.475-3.059 4.73-6.302 7.074-9.471.884.435 1.767.87 2.65 1.308v25.256c-.855.09-2.602.273-4.246.443l-4.484-12.103c-4.833 11.931-3.852 14.878 4.97 19.25 5.783 2.863 10.093 18.015 7.05 24.902-2.239-.982-4.605-3.02-6.695-2.763-8.75 1.079-11.359-4.479-12.396-11.351-1.569-10.395-6.693-18.427-13.832-25.82-8.44-8.742-2.87-33.017 8.523-36.938 2.211-.76 6.862 2.016 8.565 4.467 2.155 3.098 5.132 7.911-.885 10.894-3.76 1.865-7.697 3.358-11.555 5.02l-1.428 2.864M207 53.957l-8.767.516c-.369 1.997-.517 3.925-1.12 5.68-.392 1.14-1.506 2.898-2.19 2.846-1.282-.097-2.924-.996-3.648-2.111-2.664-4.1-5.012-8.426-7.275-12.32 2.568-4.036 4.714-8.545 7.947-11.89 1.182-1.225 6.348-.682 7.28.77 3.032 4.716 4.944 10.224 7.773 16.509m-38.992 14.965c.818-.71 2.662-3.622 4.822-3.902 4.293-.56 14.201 11.043 13.083 15.424-.754 2.948-3.579 7.408-5.68 7.534-7.83.466-12.445-6.452-12.225-19.056M181 33.415c-4.449 2.115-10.025 3.278-13.029 6.621-2.935 3.266-3.25 8.758-5.263 14.964-3.84-6.729-8.799-11.473-.062-15.298L154 34.18l2.545-2.987c3.47-.845 6.946-3.123 9.671 2.37.485.977 4.944.355 7.508.027 2.425-.308 4.77-1.203 7.151-1.841l.125 1.667M196.646 74c13.737 6.546 13.757 6.585 10.742 20-9.791-3.745-12.886-9.25-10.742-20M177 25.816c-7.934.928-12.234-1.677-14.793-7.191-.577-1.243.21-3.17.45-5.625L177 25.816m27.71 264.576L207 301l-9-2.802 3.36-8.198 3.35.392z" fill="#000"/></g><g transform="translate(0 42)"><mask id="d" fill="#fff"><use xlink:href="#c"/></mask><path d="M103.208 386.901l6.463.697c-2.877-8.495-10.63-11.453-20.266-7.671-2.583-9.622-9.97-9.835-17.953-8.71-2.868.404-5.713 1.016-8.593 1.273-14.447 1.29-17.36-2.328-15.094-16.647.886-5.595-.142-11.51-.448-17.27-.276-5.23-1.563-10.54.64-15.469l2.76-.077c.78 8.377 1.832 16.739 2.258 25.133.354 6.933.88 7.882 6.126 7.752 0-9.725-.313-19.425.2-29.081.144-2.706 2.652-5.322 4.196-7.906 1.503-2.512 3.16-4.933 4.952-7.71-7.573-3.65-16.512 2.225-20.238-5.699-1.961-4.167-.745-9.826-.985-15.32 6.652.39 10.213-1.51 12.188-7.113.728-2.065 4.872-3.212 7.662-4.19 3.023-1.057 6.286-1.428 9.593-2.988-11.003-1.419-17.602-15.422-29.474-11.263-3.277-11.639-6.296-24.348-10.478-36.663-4.259-12.537-7.642-24.962-7.517-38.414.128-13.783-6.354-25.732-12.756-37.546-4.457-8.223-8.631-16.598-12.962-24.89-4.409-8.446-4.516-16.955-.972-25.774 3.391-8.442 6.828-16.974 2.996-28.343 13.792 4.88 25.749 9.48 37.94 13.338 19.873 6.292 39.891 12.132 59.873 18.081 4.255 1.267 8.616 2.178 12.923 3.273 7.095 1.803 14.094 4.289 21.299 5.274 10.425 1.426 19.768 4.64 28.256 11.024 3.822 2.875 8.702 4.384 13.172 6.35 11.834 5.208 14.296 12.067 8.145 23.359-1.586 2.91-3.51 5.636-5.411 8.657l-5.613-2.38-1.768 8.051c-2.847.694-5.847.505-6.764 1.794-7.694 10.824-15.228 21.776-22.326 32.998-2.981 4.714-4.793 10.165-7.836 16.806l33.426 5.946c-3.78 10.96-9.74 18.068-23.015 15.08l-.445 1.997c1.738 2.14 3.053 5.256 5.297 6.228 5.65 2.447 11.606 4.596 17.649 5.622 7.054 1.196 14.333 1.073 22.172 1.564.094-1.169.335-3.303.422-5.443.243-5.91 3.369-8.874 8.937-10.898 6.075-2.206 11.621-5.863 18.441-9.435-.92-4.616-1.92-9.538-2.877-14.47-.762-3.926-1.76-7.837-2.13-11.803-.486-5.192.135-10.015 7.313-9.773-8.43-17.435-5.898-31.372 7.891-44.956 5.668-5.584 6.135-8.772.896-14.933-4.809-5.654-6.73-11.812-6.184-19.113.904-12.11-4.382-21.35-13.361-29.19-4.762-4.157-8.555-9.42-13.36-14.832 8.83-3.763 10.344 3.555 15.483 7.82.969-3.71 2.55-6.668 2.32-9.48-.594-7.29-1.968-14.518-3.063-21.766-.431-2.849-1.466-5.71-1.32-8.519.279-5.37-.326-9.2-7.209-8.74-1.414.094-3.614-1.88-4.384-3.431-4.262-8.577-8.193-17.318-12.753-27.112h532.396c0 4.199.01 7.477-.001 10.754-.4 114.325-.826 228.65-1.143 342.973-.023 8.014.353 16.08 1.359 24.019.437 3.449 2.836 6.69 4.521 9.933 4.88 9.403 9.245 19.183 6.45 29.9-2.953 11.327-12.864 14.222-22.919 15.151-10.423.965-20.957 1.053-31.44 1.005-26.357-.12-52.743.129-79.06-1.052-19.308-.866-38.526-3.747-57.778-5.773-2.201-.231-4.373-.738-7.14-1.218-6.385 16.078-21.38 13.14-34.124 14.941-6.536.923-13.315.032-19.908.709-3.353.344-7.105 1.64-9.685 3.73-6.501 5.265-13.634 6.441-21.383 4.683-8.819-2-16.617.285-24.447 4.196-10.94 5.463-22.163 10.36-33.244 15.542-4.418 2.067-8.261 1.572-12.518-1.092-8.164-5.108-16.704-3.603-24.94.208-15.323 7.09-30.361 9.41-46.774 2.105-10.637-4.733-22.484-6.973-33.972-9.503-7.328-1.615-14.6-.319-20.968 4.483-2.247 1.693-5.048 3.141-7.783 3.607-8.096 1.377-14.946 4.328-21.222 10.09-5.315 4.876-14.053 4.465-18.941.836-7.786-5.78-16.204-5.8-24.634-6.885-13.322-1.71-15.416-3.8-17.653-16.85-2.515-14.664-5.539-29.253-8.761-43.782-2.148-9.68-10.278-16.145-21.245-17.448-4.417-.525-9.05.25-13.34-.682-5.118-1.112-9.976-3.423-14.946-5.214l.909-2.465" fill="#8B0025" mask="url(#d)"/></g><path d="M184.977 224.301c-1.33-12.202.499-14.522 12.48-18.962 2.17-.805 3.74-4.132 4.88-6.622 1.098-2.4 1.281-5.223 2.648-7.9 3.988 5.326 8.165 10.881 6.325 17.414-1.98 7.03-7.046 11.669-16.273 9.442l.872 16.63-8.846-1.591c-.716 4.701-2.061 10.275 3.362 11.576 3.657.875 8.202-2.01 13.29-3.483-.77 13.804-3.88 25.962-11.195 37.145l-.925-8.458c-7.019-1.447-7.757 5.806-12.898 8.786-1.817-16.577-11.631-21.028-27.068-15.773 4.852-9.783 8.56-18.225 13.125-26.168 3.911-6.802 8.565-9.065 20.223-12.036m10.579-78.034c3.596 1.908 7.136 3.954 10.85 5.581.577.252 2.147-1.253 2.928-2.222 2.043-2.542 3.906-5.236 5.84-7.869.73.362 1.46.724 2.188 1.087v20.98l-3.505.37-3.702-10.055c-3.99 9.91-3.18 12.36 4.104 15.99 4.773 2.38 8.331 14.966 5.819 20.687-1.848-.815-3.801-2.509-5.527-2.295-7.223.896-9.377-3.72-10.234-9.43-1.295-8.635-5.525-15.307-11.419-21.448-6.967-7.262-2.37-27.428 7.037-30.685 1.825-.632 5.664 1.674 7.07 3.71 1.78 2.574 4.238 6.572-.73 9.05-3.105 1.55-6.355 2.79-9.54 4.17l-1.179 2.38m-9.942-60.79l-7.473.424c-.315 1.642-.44 3.226-.956 4.669-.333.937-1.283 2.381-1.865 2.339-1.094-.08-2.494-.818-3.111-1.735-2.271-3.37-4.272-6.926-6.202-10.127 2.19-3.316 4.019-7.023 6.775-9.772 1.008-1.007 5.411-.56 6.207.632 2.584 3.877 4.214 8.404 6.625 13.57M154.25 97.333c.713-.565 2.32-2.878 4.202-3.101 3.741-.445 12.375 8.775 11.4 12.256-.656 2.342-3.118 5.887-4.949 5.986-6.823.37-10.845-5.127-10.654-15.141m9.144-28.983c-3.662 1.768-8.25 2.74-10.723 5.532-2.416 2.729-2.675 7.317-4.332 12.502-3.16-5.622-7.241-9.585-.05-12.78a37640.64 37640.64 0 01-7.117-4.616l2.095-2.495c2.856-.706 5.717-2.609 7.96 1.98.399.817 4.068.297 6.179.023 1.995-.258 3.925-1.005 5.885-1.539l.103 1.393m13.591 33.699c11.05 5.554 11.066 5.587 8.64 16.97-7.875-3.178-10.364-7.85-8.64-16.97m-16.205-40.616c-6.914.746-10.661-1.347-12.891-5.777-.503-.998.182-2.547.392-4.518l12.499 10.295m22.839 221.087l1.996 8.812-7.843-2.327 2.929-6.81 2.918.325z" fill="#8B0025"/></g></svg>