<svg version="1.1" id="Layer_1" xmlns="http://www.w3.org/2000/svg" x="0" y="0" viewBox="0 0 1440 78.5" xml:space="preserve"><style>.st0{fill-rule:evenodd;clip-rule:evenodd;fill:#231f20;enable-background:new}</style><path id="Fill-11" class="st0" d="M453.5 28.1l-1.5-2.7-1.5 2.7z"/><path id="Fill-12" class="st0" d="M506.3 28.8l-2.3-4.1-2.3 4.1z"/><path id="Fill-24" class="st0" d="M810.5 48.3l6 11 6-11z"/><path id="Fill-25" class="st0" d="M664.5 49.3h-9l4.5 8z"/><path id="Fill-28" class="st0" d="M716.5 48.3h-10l5 9z"/><path id="Fill-81" class="st0" d="M711.5 21.3l-5 9h10z"/><path id="Fill-125" class="st0" d="M973 15.8l-9 16h18z"/><path id="Fill-126" class="st0" d="M1024.5 15.3l-10 17h20z"/><path id="Fill-127" class="st0" d="M1076 14.3l-10.5 18h21z"/><path id="Fill-128" class="st0" d="M1129 13.8l-11 20h22z"/><path id="Fill-129" class="st0" d="M868 18.8l-8 12h16z"/><path id="Fill-132" class="st0" d="M920 17.3l-8.5 14h17z"/><path id="Fill-135" class="st0" d="M166.9 65.8h.2l-.1-.1z"/><path id="Fill-138" class="st0" d="M166.9 12.7l.1.1.1-.1z"/><path id="Fill-146" class="st0" d="M765 20.3l-5.5 10h11z"/><path id="Fill-213" class="st0" d="M218.9 66.6L218 65l-.9 1.6z"/><path id="Fill-216" class="st0" d="M218 13.6l.9-1.6h-1.8z"/><path id="Fill-239" class="st0" d="M1337 66.8l14-24h-28z"/><path id="Fill-240" class="st0" d="M1351 34.8l-14-24-14 24z"/><path id="Fill-241" class="st0" d="M1310.5 31.8l16.5-29h-33z"/><path id="Fill-242" class="st0" d="M1294 76.8h33l-16.5-29z"/><path id="Fill-256" class="st0" d="M452 54.1l1.5-2.7h-3z"/><path id="Fill-264" class="st0" d="M479 60.3l-4.5 8h9z"/><path id="Fill-314" class="st0" d="M1425 41.8l15.5 27 15.5-27z"/><path id="Fill-322" class="st0" d="M1456 35.8l-15.5-27-15.5 27z"/><path id="Fill-423" class="st0" d="M1389 67.8l15-26h-30z"/><path id="Fill-508" class="st0" d="M1363 31.3l17.5-30h-35z"/><path id="Fill-510" class="st0" d="M1345.5 75.3h35l-17.5-30z"/><path id="Fill-542" class="st0" d="M1404 35.8l-15-26-15 26z"/><path id="Fill-543" class="st0" d="M1432.5 2.3h-36l18 31z"/><path id="Fill-544" class="st0" d="M1396.5 75.3h36l-18-31z"/><path id="Fill-619" class="st0" d="M1221 75.8l-15-26-15 26z"/><path id="Fill-626" class="st0" d="M535.5 69.3l-5-9-5 9z"/><path id="Fill-630" class="st0" d="M504 54.8l2.3-4.1h-4.6z"/><path id="Fill-632" class="st0" d="M1168.5 4.3h-29l14.5 24z"/><path id="Fill-634" class="st0" d="M1010.5 5.3h-24l12 21z"/><path id="Fill-635" class="st0" d="M1116 4.8h-27l13.5 23z"/><path id="Fill-636" class="st0" d="M1064 4.8h-26l13 22z"/><path id="Fill-653" class="st0" d="M957.5 5.3h-23l11.5 20z"/><path id="Fill-665" class="st0" d="M816.5 20.3l-6 11h12z"/><path id="Fill-666" class="st0" d="M1192 33.8l-11.5-21-11.5 21z"/><path id="Fill-667" class="st0" d="M1180.5 63.8l11.5-21h-23z"/><path id="Fill-668" class="st0" d="M664.5 30.3l-4.5-8-4.5 8z"/><path id="Fill-670" class="st0" d="M642.5 9.3h-14l7 11z"/><path id="Fill-695" class="st0" d="M800 5.8h-19l9.5 17z"/><path id="Fill-697" class="st0" d="M746.5 7.3h-17l8.5 14z"/><path id="Fill-699" class="st0" d="M695 8.8h-16l8 12z"/><path id="Fill-720" class="st0" d="M905 5.8h-21l10.5 19z"/><path id="Fill-735" class="st0" d="M852 5.8h-20l10 18z"/><path id="Fill-760" class="st0" d="M401.7 27.4l-.7-1.3-.7 1.3z"/><path id="Fill-762" class="st0" d="M401 51.3l.7-1.1h-1.4z"/><path id="Fill-763" class="st0" d="M430.5 10.3h-8l4 7z"/><path id="Fill-767" class="st0" d="M483.5 9.3h-9l4.5 8z"/><path id="Fill-769" class="st0" d="M612.5 50.3h-7l3.5 6z"/><path id="Fill-773" class="st0" d="M535.5 9.3h-10l5 9z"/><path id="Fill-775" class="st0" d="M560 29.5l-3-5.5-3 5.5z"/><path id="Fill-777" class="st0" d="M642.5 70.3l-7-11-7 11z"/><path id="Fill-827" class="st0" d="M426.5 61.3l-4 7h8z"/><path id="Fill-865" class="st0" d="M1168.5 74.3l-14.5-24-14.5 24z"/><path id="Fill-866" class="st0" d="M800 71.8l-9.5-17-9.5 17z"/><path id="Fill-867" class="st0" d="M759.5 48.3l5.5 10 5.5-10z"/><path id="Fill-869" class="st0" d="M374 16.7l3-5.9h-6z"/><path id="Fill-870" class="st0" d="M377 67.7l-3-5.9-3 5.9z"/><path id="Fill-871" class="st0" d="M746.5 70.3l-8.5-14-8.5 14z"/><path id="Fill-872" class="st0" d="M695 69.8l-8-12-8 12z"/><path id="Fill-873" class="st0" d="M1065.5 44.3l10.5 18 10.5-18z"/><path id="Fill-874" class="st0" d="M957.5 73.3l-11.5-20-11.5 20z"/><path id="Fill-876" class="st0" d="M1116 73.8l-13.5-23-13.5 23z"/><path id="Fill-878" class="st0" d="M1010.5 73.3l-12-21-12 21z"/><path id="Fill-880" class="st0" d="M964 44.8l9 16 9-16z"/><path id="Fill-881" class="st0" d="M1064 73.8l-13-22-13 22z"/><path id="Fill-882" class="st0" d="M1014.5 44.3l10 17 10-17z"/><path id="Fill-883" class="st0" d="M1118 43.8l11 20 11-20z"/><path id="Fill-889" class="st0" d="M587.5 69.3l-5.5-10-5.5 10z"/><path id="Fill-890" class="st0" d="M557 55.5l3-5.5h-6z"/><path id="Fill-903" class="st0" d="M911.5 46.3l8.5 14 8.5-14z"/><path id="Fill-904" class="st0" d="M852 71.8l-10-18-10 18z"/><path id="Fill-905" class="st0" d="M860 46.8l8 12 8-12z"/><path id="Fill-906" class="st0" d="M905 72.8l-10.5-19-10.5 19z"/><path id="Fill-907" class="st0" d="M611.5 29.3l-3.5-6-3.5 6z"/><path id="Fill-909" class="st0" d="M587.5 9.3h-11l5.5 10z"/><path id="Fill-931" class="st0" d="M1297 34.8l-13.5-23-13.5 23z"/><path id="Fill-932" class="st0" d="M1206 29.8l15-26h-30z"/><path id="Fill-935" class="st0" d="M1283.5 65.8l13.5-23h-27z"/><path id="Fill-965" class="st0" d="M271.7 67.3l-1.7-3.1-1.7 3.1z"/><path id="Fill-966" class="st0" d="M270 14.3l1.7-3.1h-3.4z"/><path id="Fill-1067" class="st0" d="M1232 65.8l13-22h-26z"/><path id="Fill-1068" class="st0" d="M1245 34.8l-13-22-13 22z"/><path id="Fill-1111" class="st0" d="M325.5 67l-2.5-4.5-2.5 4.5z"/><path id="Fill-1112" class="st0" d="M323 15l2.6-4.5h-5.2z"/><path id="Fill-1159" class="st0" d="M1273.5 76.3l-15.5-28-15.5 28z"/><path id="Fill-1168" class="st0" d="M1258 30.3l15.5-28h-31z"/><path id="Fill-1284" class="st0" d="M1440-2.4l.5-.9-.5-.8-.5.9z"/><path id="Fill-1357" class="st0" d="M1440 82.6l.5-.9-.5-.8-.5.9z"/></svg>