<svg xmlns="http://www.w3.org/2000/svg" viewBox="0 0 78.5 1244"><path d="M7.4 642.3v10.3l9.5-5.1zm25 336.7v-25.5l-21.6 12.7zm-24-377.4l8.5-4.7-8.5-4.7zm61.4 100.2v-11.4l-10.4 5.7zM68.9 544l-7.7 4.3 7.7 4.2zm.9 48.2l-8.6 4.7 8.6 4.7zM6.4 785.8v16.1l13.2-8zm-.5 49.6v17l15.2-8.5zm-.3 47.7V902l16-9.4zm1.3-145.9v15.1l11.3-7.6zm18-654.7l-.1.1.1.1zm28.2 0v.2l.3-.1zM5.6 931.3v19.8l17-9.9zm20-801.4l-1.5.9 1.5.9zm26.8 0v1.8l1.5-.9zM74.9 1201v-26.5l-22.7 13.2zm-32-53.9v31.2l27.3-15.6zm-9.5 31.2v-31.2l-27.5 15.6zm33.4-827.9l-2.6 1.4 2.6 1.4zm-15.9 22.7v8.5l7.5-4.3zm-42 25.6v4.4l3.7-2.2zm-4.8 775.8v26.5l22.7-13.3zm47.3 62.3l12.4 7.2h12.1v-21.3zm-7.2-8l28.4-16.5-28.4-16.5zm-9.3 0v-33l-28.5 16.5zm-31.8-6.1v21.3h12.3l12.4-7.2zm41.1 21.3h.2l-.2-.1zm-9.6 0h.3v-.1zm9.2-194.2v28.4l24.6-14.2zm6.1-628.6v9.5l8.5-4.7zM9.2 502.5l5.7-3.3-5.7-3.3zm.2-149.3l2.5-1.4-2.5-1.4zm18.7 116.2l-9.3 5.2 9.3 5.2zm39.3-70.7l-3.8 2.2 3.8 2.2zm7.5 652.1V1029l-19.8 10.9zM4.1 1029v21.8l19.8-10.9zm23.1-655.9l-7.6 4.2 7.6 4.3zm5.2 705.1v-28.4L7.9 1064zM9.1 303v1.3l1.3-.7zm58.8 0l-1 .6 1 .7zm0 193.8l-5.8 3.3 5.8 3.3zM29.6 680.5v-17.9l-16 8.9zm-.5-50.5v-16.1L15.9 622zm-1.3-63.8l-11.4 7.6 11.4 7.5zM4.1 980.9v20.8l18.8-10.4zm44.8-462.4v13.2l10.5-6.6zM32.4 929.9v-24.6l-20.8 12.3zm-1.8-150.2v-19.8l-18 9.9zm.5 49.6v-21.7l-19 10.8zm0 50v-22.6l-20 11.3zm-.5-149.7v-18.9l-17 9.5zm20.3-405.7v7.6l6.5-3.8zm-23.7 0l-6.6 3.8 6.6 3.8zm-.6-48.6l-5.5 2.8 5.5 2.9zm18.5 725.9v27.4l22.8-13.7zm2.5-338.6v17.9l16-9zm12.8-15.1l9.4 5.1v-10.3zm-27.5 381.1v-27.4l-22.7 13.7zm18.5-753.3v5.7l5.5-2.9zm-2.5 338.6V630l13.2-8zm.5-32.6l11.4-7.5-11.4-7.6zm24.2 369.8v-19.8l-17 9.9zM46.1 807.6v21.7l19-10.9zm-.5 145.9V979l21.8-12.8zM7.4 690.4v11.4l10.5-5.7zm38.7 166.3v22.6L65.9 868zM8.4 552.5l7.5-4.2-7.5-4.3zm64.7 299.9v-17l-15.2 8.5zm-27.5 52.9v24.6l20.8-12.3zm28-3.3v-18.9l-16.2 9.5zm.5 99.7v-20.8l-19 10.4zm-46-483.2l-10.2 6.6 10.2 6.6zm21.8-49.1v10.4l9.5-5.2zm18.2-21.2l-5.2 2.8 5.2 2.8zm3.5 353.7v-16.1l-13.2 8.1zm-24-91.2v18.9l17-9.4zm23.5 41.6v-15.1l-11.2 7.5zm-24.5 7.6v19.8l18-9.9zM4.1 1124.4v25.5l21.8-12.7zm70.8 25.5v-25.5l-21.7 12.8zM26.4 178.3l-3 1.6 3 1.6zm25.4 0v3.2l2.8-1.6zm22.3 922.5v-24.5l-20.9 12.3zm-70-24.5v24.5l20.8-12.2zm48-843.9l4.1-2.4-4.1-2.4zm-26-4.9l-4.2 2.5 4.2 2.4zm2 193.7l-8.5 4.8 8.5 4.7zm-20 27v5.6l5.1-2.8zm35.3 650.3v29.3l26.4-14.7zm-10.5 29.3v-29.3l-26.5 14.6z" fill="#231f20"/></svg>