<svg width="72" height="79" viewBox="0 0 72 79" xmlns="http://www.w3.org/2000/svg" xmlns:xlink="http://www.w3.org/1999/xlink"><defs><path id="a" d="M0 0h72v79H0z"/></defs><g fill="none" fill-rule="evenodd"><path d="M36.014 34.333a5.283 5.283 0 00-3.709 1.514A5.13 5.13 0 0030.77 39.5a5.138 5.138 0 001.538 3.651 5.292 5.292 0 003.707 1.515 5.283 5.283 0 003.708-1.513 5.129 5.129 0 001.536-3.653 5.13 5.13 0 00-1.536-3.654 5.284 5.284 0 00-3.708-1.514" fill="#AB1D35"/><mask id="b" fill="#fff"><use xlink:href="#a"/></mask><path d="M67.194 57.237c-1.94 3.304-7.617 4.448-15.381 3.223a68.66 68.66 0 002.135-10.73 70.146 70.146 0 008.394-7.254c5 6.038 6.75 11.536 4.852 14.76M50.455 39.503c0 2.797-.13 5.465-.376 8.004a87.072 87.072 0 01-6.848 4.321 75.63 75.63 0 01-19.038 7.828 60.667 60.667 0 01-1.555-6.836 99.75 99.75 0 004.091 2.482c.47.272 1.03.348 1.557.21a2.043 2.043 0 001.249-.94 1.99 1.99 0 00.202-1.536 2.017 2.017 0 00-.963-1.224l.016.016a86.838 86.838 0 01-6.848-4.32 85.95 85.95 0 01-.376-8.006 72.909 72.909 0 012.626-20.153c2.302.57 4.57 1.271 6.79 2.096a93.83 93.83 0 00-4.237 2.257 2.02 2.02 0 00-.964 1.224 1.996 1.996 0 00.203 1.536c.272.465.722.804 1.249.94a2.07 2.07 0 001.557-.21 95.092 95.092 0 017.224-3.683 87.728 87.728 0 017.225 3.684 74.915 74.915 0 0116.413 12.31 62.231 62.231 0 01-5.237 4.74c.082-1.556.131-3.136.131-4.74 0-1.113-.916-2.016-2.046-2.016-1.129 0-2.045.903-2.045 2.016m-2.61 20.152a55.44 55.44 0 01-3.134-.846 2.07 2.07 0 00-1.559.145c-.48.25-.838.678-.998 1.189a2.01 2.01 0 001.354 2.518c1.023.307 2.038.58 3.044.807-2.798 7.271-6.741 11.503-10.538 11.503-3.796 0-7.74-4.232-10.546-11.51v-.001a79.36 79.36 0 0019.816-8.142 87.437 87.437 0 004.09-2.483c-.378 2.3-.89 4.577-1.53 6.82M36.014 4.031c3.87 0 7.716 4.273 10.497 11.52a71.214 71.214 0 00-10.497 3.547 71.2 71.2 0 00-10.546-3.555c2.806-7.28 6.75-11.512 10.546-11.512m12.583 18.413c.105.536.428 1.006.893 1.305a2.074 2.074 0 001.573.274 2.041 2.041 0 001.293-.924 1.987 1.987 0 00.225-1.558 38.705 38.705 0 00-.818-3.015c7.838-1.25 13.524.016 15.43 3.24 1.899 3.225.148 8.723-4.843 14.752a78.565 78.565 0 00-17.067-12.833 85.777 85.777 0 00-4.238-2.257 63.23 63.23 0 016.733-2.08c.295 1.008.573 2.032.819 3.096M4.843 57.236c-1.899-3.225-.107-8.723 4.876-14.72h.025a70.355 70.355 0 008.361 7.19 68.65 68.65 0 002.128 10.754c-7.797 1.241-13.491 0-15.39-3.224m-.007-35.469c1.897-3.225 7.592-4.49 15.39-3.225a76.425 76.425 0 00-2.75 20.96c0 1.611.05 3.223.13 4.74a62.177 62.177 0 01-5.194-4.74 54.649 54.649 0 012.307-2.25 1.993 1.993 0 00.044-2.79 2.067 2.067 0 00-2.826-.16c-.818.717-1.53 1.45-2.258 2.184-4.99-5.998-6.741-11.495-4.843-14.719m65.894-2.01c-2.97-5.078-10.571-6.674-20.177-5.045C47.1 5.336 41.848 0 36.014 0c-5.833 0-11.159 5.691-14.53 14.712-9.614-1.613-17.182 0-20.193 5.038-3.01 5.038-.573 12.358 5.654 19.75C.448 47.126-1.621 54.268 1.29 59.25h.001c2.234 3.806 7.061 5.643 13.402 5.643a40.754 40.754 0 006.799-.612c3.363 9.029 8.574 14.72 14.522 14.72 5.947 0 11.152-5.684 14.522-14.697 2.27.413 4.572.631 6.881.654 6.43 0 11.119-1.951 13.312-5.7 2.977-5.08.573-12.366-5.67-19.75 6.242-7.385 8.64-14.672 5.67-19.75" fill="#020303" mask="url(#b)"/><path d="M62.35 36.518zM36.014 74.97zM20.225 18.542zm5.243 44.917zm14.254-20.304a5.285 5.285 0 01-3.708 1.513 5.292 5.292 0 01-3.706-1.515A5.136 5.136 0 0130.77 39.5a5.13 5.13 0 011.535-3.654 5.285 5.285 0 013.709-1.513c1.39 0 2.725.544 3.708 1.513a5.13 5.13 0 011.536 3.654 5.13 5.13 0 01-1.536 3.654m-3.709-12.852a9.4 9.4 0 00-6.6 2.694 9.126 9.126 0 00-2.735 6.504c0 2.44.984 4.779 2.735 6.503a9.402 9.402 0 006.6 2.694 9.41 9.41 0 006.599-2.696 9.135 9.135 0 002.737-6.501c0-2.44-.984-4.78-2.735-6.504a9.405 9.405 0 00-6.6-2.694" fill="#020303"/></g></svg>