<svg width="87" height="76" viewBox="0 0 87 76" xmlns="http://www.w3.org/2000/svg" xmlns:xlink="http://www.w3.org/1999/xlink"><defs><path id="a" d="M0 0h87v76H0z"/></defs><g fill="none" fill-rule="evenodd"><mask id="b" fill="#fff"><use xlink:href="#a"/></mask><path d="M82.562 63.54H61.61a17.427 17.427 0 00-13.148 5.85l-.071.079-.08.08c-.274.272-.571.52-.888.742l-.266.186a6.718 6.718 0 01-.8.46h-.052l-.134.06-.354.15a6.04 6.04 0 01-.667.204l-.381.088a6.607 6.607 0 01-1.27.142h-.39a6.5 6.5 0 01-.888-.115c-.186 0-.337-.08-.515-.133a5.116 5.116 0 01-.55-.167l-.392-.168-.168-.08a6.95 6.95 0 01-.78-.441l-.312-.212a6.796 6.796 0 01-.798-.708l-.169-.176a17.693 17.693 0 00-13.148-5.886H4.44v-50.24h5.54v42.508a2.2 2.2 0 00.65 1.562c.416.414.98.647 1.569.647H26.01a21.289 21.289 0 0115.83 7.07 2.224 2.224 0 003.31 0 21.29 21.29 0 0115.83-7.07h13.822a2.23 2.23 0 001.57-.647c.415-.414.65-.976.65-1.562V13.255h5.539V63.54zM14.417 4.417h11.594a21.294 21.294 0 0115.27 6.46v47.66a25.769 25.769 0 00-15.27-5.02H14.417v-49.1zm31.303 6.478a21.296 21.296 0 0115.27-6.478h11.594v49.1H60.989a25.769 25.769 0 00-15.269 5.02V10.896zm37.924-2.059h-6.622v-6.61a2.205 2.205 0 00-.644-1.573A2.225 2.225 0 0074.803 0H60.989a25.809 25.809 0 00-17.49 6.866A25.808 25.808 0 0026.012 0H12.198c-1.226 0-2.22.99-2.22 2.21v6.627H3.356c-.883 0-1.73.346-2.358.963A3.334 3.334 0 000 12.134v52.44c0 .886.353 1.735.983 2.361a3.362 3.362 0 002.373.979h22.035a13.247 13.247 0 019.854 4.419l.31.326c.402.414.835.795 1.296 1.14.186.133.364.266.532.371.408.27.831.511 1.27.725l.222.106a9.179 9.179 0 001.642.592c.213.062.498.142.835.204.48.095.967.157 1.456.185L43.5 76a11.164 11.164 0 002.185-.22 4.94 4.94 0 00.648-.16 9.8 9.8 0 001.082-.335h.107l.559-.24.16-.078h.053v-.001c.474-.226.93-.487 1.368-.778l.46-.318h.001c.492-.393.95-.828 1.367-1.3l.107-.105.186-.203a12.979 12.979 0 019.765-4.339h22.096c.892 0 1.747-.353 2.377-.982a3.33 3.33 0 00.98-2.368v-52.44A3.333 3.333 0 0086 9.8a3.361 3.361 0 00-2.357-.963z" fill="#020303" mask="url(#b)"/><path d="M20.695 15.624v.01h3.684a21.31 21.31 0 019.357 2.182 2.224 2.224 0 002.886-1.044 2.204 2.204 0 00-.924-2.915 25.769 25.769 0 00-11.355-2.651h-3.648c-1.227 0-2.22.99-2.22 2.21s.993 2.208 2.22 2.208m0 9.774v.009h3.684c3.245.006 6.447.752 9.357 2.183a2.224 2.224 0 002.886-1.044 2.204 2.204 0 00-.924-2.915 25.762 25.762 0 00-11.355-2.652h-3.648c-1.227 0-2.22.989-2.22 2.21 0 1.22.993 2.209 2.22 2.209m0 9.774v.01h3.684c3.245.005 6.447.752 9.357 2.182a2.224 2.224 0 002.886-1.044 2.205 2.205 0 00-.924-2.915 25.775 25.775 0 00-11.355-2.652h-3.648c-1.227 0-2.22.99-2.22 2.21s.993 2.209 2.22 2.209m13.04 11.974c.531.29 1.158.35 1.735.17a2.218 2.218 0 001.322-1.13 2.2 2.2 0 00.095-1.732 2.212 2.212 0 00-1.19-1.267 25.769 25.769 0 00-11.354-2.651h-3.649c-1.226 0-2.219.99-2.219 2.209 0 1.22.993 2.21 2.22 2.21h3.683c3.247.008 6.448.758 9.357 2.191zm18.351-29.101h.035c.34 0 .673-.08.977-.23a21.318 21.318 0 019.401-2.182h3.685c1.226 0 2.219-.99 2.219-2.21s-.993-2.209-2.22-2.209H62.5a25.691 25.691 0 00-11.398 2.642 2.205 2.205 0 00-1.175 2.483c.234 1 1.13 1.706 2.16 1.706m-.001 9.775h.035c.34-.002.673-.08.977-.23a21.324 21.324 0 019.401-2.183h3.685a2.214 2.214 0 002.219-2.21c0-1.22-.993-2.209-2.22-2.209H62.5a25.702 25.702 0 00-11.398 2.643 2.204 2.204 0 00-1.175 2.483 2.217 2.217 0 002.16 1.706m-.001 9.774h.035c.34-.001.673-.08.977-.23a21.311 21.311 0 019.401-2.182h3.685c1.226 0 2.219-.99 2.219-2.21s-.993-2.209-2.22-2.209H62.5a25.691 25.691 0 00-11.398 2.642 2.206 2.206 0 00-1.175 2.483 2.218 2.218 0 002.16 1.706m14.097 7.37c1.226 0 2.219-.99 2.219-2.21s-.993-2.209-2.22-2.209H62.5a25.687 25.687 0 00-11.4 2.642 2.205 2.205 0 00-1.175 2.484 2.217 2.217 0 002.16 1.705l.036-.009c.34-.001.673-.08.976-.23a21.33 21.33 0 019.402-2.173h3.684z" fill="#AB1D35"/></g></svg>