<svg width="59" height="81" viewBox="0 0 59 81" xmlns="http://www.w3.org/2000/svg" xmlns:xlink="http://www.w3.org/1999/xlink"><defs><path id="a" d="M0 0h59v81H0z"/></defs><g fill="none" fill-rule="evenodd"><path d="M29.502 33.764a9.16 9.16 0 006.562-2.789 9.65 9.65 0 002.717-6.734 9.65 9.65 0 00-2.717-6.734 9.16 9.16 0 00-6.562-2.79 9.18 9.18 0 00-6.557 2.795 9.665 9.665 0 00-2.722 6.73 9.65 9.65 0 002.718 6.733 9.16 9.16 0 006.561 2.79" fill="#AB1D35"/><mask id="b" fill="#fff"><use xlink:href="#a"/></mask><path d="M19.29 32.987a13.407 13.407 0 005.006 3.824L7.055 68.025A12.383 12.383 0 015.33 61.95a12.399 12.399 0 011.486-6.14L19.29 32.986zm3.655-15.475a9.18 9.18 0 016.557-2.795 9.16 9.16 0 016.562 2.79 9.65 9.65 0 012.717 6.734 9.65 9.65 0 01-2.717 6.734 9.16 9.16 0 01-6.562 2.789 9.16 9.16 0 01-6.562-2.79 9.65 9.65 0 01-2.717-6.733 9.67 9.67 0 012.722-6.73zm16.77 15.477l12.483 22.82a12.409 12.409 0 011.486 6.14 12.38 12.38 0 01-1.728 6.076L34.709 36.813a13.402 13.402 0 005.006-3.824zm-7.977 19.978V48.73c0-1.14-.9-2.065-2.012-2.065-1.11 0-2.011.925-2.011 2.065v4.213a26.46 26.46 0 01-6.914-1.454l7.55-13.67c.378 0 .764.058 1.15.058.387 0 .805 0 1.151-.058l7.621 13.818a26.443 26.443 0 01-6.535 1.33zm-24.884-5.65l-3.558 6.5a16.644 16.644 0 00-1.93 9.331 16.526 16.526 0 003.492 8.841l-3.219 5.872a2.109 2.109 0 00-.228 1.595c.136.54.482 1.002.956 1.277a1.965 1.965 0 001.56.182c.522-.157.96-.527 1.213-1.022l13.682-24.728a30.372 30.372 0 008.933 1.95v4.369c0 1.14.901 2.064 2.012 2.064s2.013-.924 2.013-2.064v-4.378a30.414 30.414 0 008.515-1.767L53.88 79.894a1.983 1.983 0 002.709.724c.945-.55 1.295-1.768.792-2.756l-3.22-5.872a16.532 16.532 0 003.49-8.84 16.652 16.652 0 00-1.928-9.331l-3.558-6.5a32.667 32.667 0 006.697-10.738c.404-1.063-.108-2.261-1.143-2.676-1.036-.415-2.203.11-2.608 1.173a28.505 28.505 0 01-5.022 8.416l-8.048-14.71a13.91 13.91 0 00-1.1-11.581c-2.04-3.496-5.5-5.87-9.427-6.466V2.065C31.514.924 30.613 0 29.502 0S27.49.924 27.49 2.065v8.672c-3.928.598-7.388 2.973-9.426 6.472a13.909 13.909 0 00-1.093 11.583l-8.049 14.71a28.493 28.493 0 01-5.021-8.416 2.045 2.045 0 00-1.061-1.17 1.961 1.961 0 00-1.556-.043c-.504.2-.908.6-1.12 1.11A2.116 2.116 0 00.15 36.58a32.672 32.672 0 006.704 10.738z" fill="#020303" mask="url(#b)"/><path d="M33.978 76.514c-1.112.073-1.955 1.057-1.884 2.198.071 1.14 1.03 2.005 2.141 1.932h.266c1.11-.148 1.894-1.193 1.75-2.334-.145-1.14-1.162-1.944-2.273-1.796m-9.804.058a2.051 2.051 0 00-1.408 1.71v.017a2.103 2.103 0 00.402 1.526c.326.434.807.716 1.336.787h.258a2.01 2.01 0 001.833-1.215c.325-.739.2-1.605-.322-2.214a1.981 1.981 0 00-2.1-.611m18.512-2.394h-.04c-.894.379-1.398 1.358-1.201 2.329.196.971 1.039 1.662 2.006 1.644.259-.001.515-.052.756-.149 1.03-.43 1.523-1.637 1.103-2.693-.42-1.056-1.595-1.562-2.624-1.131m-28.946 2.714a2.04 2.04 0 001.1 1.11c1.022.404 2.171-.102 2.591-1.14.414-1.056-.082-2.256-1.11-2.684-1.02-.41-2.172.093-2.592 1.131a2.118 2.118 0 00.011 1.583" fill="#020303"/></g></svg>