<svg width="73" height="83" viewBox="0 0 73 83" xmlns="http://www.w3.org/2000/svg" xmlns:xlink="http://www.w3.org/1999/xlink"><defs><path id="a" d="M0 0h73v83H0z"/></defs><g fill="none" fill-rule="evenodd"><path d="M45.703 22.194c-2.032 0-3.98.803-5.417 2.234a7.602 7.602 0 00-2.244 5.39l.008.043a7.61 7.61 0 002.256 5.36 7.682 7.682 0 0010.814-.012 7.604 7.604 0 002.244-5.39 7.604 7.604 0 00-2.244-5.391 7.678 7.678 0 00-5.417-2.234" fill="#AB1D35"/><mask id="b" fill="#fff"><use xlink:href="#a"/></mask><path d="M64.247 60.577a20.635 20.635 0 01-16.1 7.523h-3.405v-6.862l3.395-.077a13.734 13.734 0 0010.301-4.651 13.597 13.597 0 003.278-10.773 13.63 13.63 0 00-5.977-9.557 11.735 11.735 0 001.898-6.395v-.458a20.512 20.512 0 0110.82 14.05 20.43 20.43 0 01-4.21 17.2zM40.47 78.765H23.58V61.61a8.395 8.395 0 012.476-5.94 8.476 8.476 0 015.969-2.464 8.474 8.474 0 015.969 2.464 8.39 8.39 0 012.476 5.94v17.154zm10.65-43.556a7.68 7.68 0 01-10.814.012 7.607 7.607 0 01-2.256-5.36l-.009-.044.001.001a7.6 7.6 0 012.244-5.39 7.68 7.68 0 015.417-2.234 7.68 7.68 0 015.417 2.233 7.605 7.605 0 012.244 5.391 7.605 7.605 0 01-2.244 5.391zM34.818 25.08a11.81 11.81 0 00-.394 8.56l-4.222 4.142a1.802 1.802 0 01-2.554 0L19.12 29.31a1.783 1.783 0 010-2.541L41.251 4.744a1.804 1.804 0 012.554 0l8.563 8.513a1.783 1.783 0 010 2.542l-2.86 2.82a11.968 11.968 0 00-8.602.398 11.886 11.886 0 00-6.088 6.061zM18.123 41.753l-2.988-2.939 3.763-3.745 2.996 2.982-3.771 3.702zm38.076-17.528a11.96 11.96 0 00-2.843-3.456l2.008-1.999h.001a6.001 6.001 0 001.753-4.235 6 6 0 00-1.753-4.236l-8.547-8.556a6.062 6.062 0 00-8.513 0L16.175 23.77a5.993 5.993 0 00-1.764 4.092 5.992 5.992 0 001.551 4.176L11.8 36.179a3.684 3.684 0 000 5.218l3.771 3.753a3.722 3.722 0 005.244 0l4.162-4.142a6.052 6.052 0 008.308-.212l3.363-3.347v.001a11.889 11.889 0 007.701 4.16 11.92 11.92 0 008.472-2.228 9.405 9.405 0 014.653 6.489 9.368 9.368 0 01-2.026 7.713 9.465 9.465 0 01-7.249 3.392h-4.367a12.654 12.654 0 00-6.881-7.029 12.74 12.74 0 00-9.86 0 12.654 12.654 0 00-6.88 7.029H2.127A2.124 2.124 0 000 59.094c0 1.17.953 2.118 2.128 2.118v.025H19.34v17.527H9.125a2.123 2.123 0 00-2.128 2.118c0 1.17.953 2.118 2.128 2.118h45.822a2.122 2.122 0 002.128-2.118 2.123 2.123 0 00-2.128-2.118H44.732v-6.429h3.405A24.875 24.875 0 0068.171 62.26a24.62 24.62 0 003.693-22.033 24.777 24.777 0 00-15.665-16z" fill="#020303" mask="url(#b)"/><path d="M32.16 59.446a2.23 2.23 0 00-1.908 1.07 2.212 2.212 0 00-.067 2.18 2.23 2.23 0 001.838 1.184h.273a2.23 2.23 0 001.84-1.184 2.212 2.212 0 00-.067-2.18 2.233 2.233 0 00-1.909-1.07" fill="#020303"/></g></svg>